<?xml version="1.0" standalone="no"?>
<!DOCTYPE svg PUBLIC "-//W3C//DTD SVG 20010904//EN"
 "http://www.w3.org/TR/2001/REC-SVG-20010904/DTD/svg10.dtd">
<svg version="1.0" xmlns="http://www.w3.org/2000/svg"
 width="960.000000pt" height="887.000000pt" viewBox="0 0 960.000000 887.000000"
 preserveAspectRatio="xMidYMid meet">

<g transform="translate(0.000000,887.000000) scale(0.100000,-0.100000)"
fill="#000000" stroke="none">
<path d="M3880 8819 c13 -43 24 -51 17 -12 -4 20 -2 33 6 37 7 2 2 5 -10 5
-20 1 -21 -2 -13 -30z"/>
<path d="M5924 8826 c-10 -8 -16 -18 -11 -22 4 -4 7 -2 7 4 0 7 11 12 25 12
14 0 25 5 25 10 0 14 -23 12 -46 -4z"/>
<path d="M6266 8823 c-6 -14 -5 -16 5 -5 20 19 50 16 42 -5 -6 -16 -5 -16 10
-4 25 20 21 27 -17 29 -24 2 -36 -2 -40 -15z"/>
<path d="M3932 8810 c0 -14 2 -19 5 -12 2 6 2 18 0 25 -3 6 -5 1 -5 -13z"/>
<path d="M6018 8823 c7 -3 16 -2 19 1 4 3 -2 6 -13 5 -11 0 -14 -3 -6 -6z"/>
<path d="M6065 8820 c3 -5 8 -10 11 -10 2 0 4 5 4 10 0 6 -5 10 -11 10 -5 0
-7 -4 -4 -10z"/>
<path d="M6580 8822 c0 -4 9 -13 20 -20 19 -12 20 -11 8 8 -13 20 -28 27 -28
12z"/>
<path d="M3575 8810 c-19 -8 -19 -9 3 -9 12 -1 22 4 22 9 0 6 -1 10 -2 9 -2 0
-12 -4 -23 -9z"/>
<path d="M6556 8803 c-6 -14 -5 -15 5 -6 7 7 10 15 7 18 -3 3 -9 -2 -12 -12z"/>
<path d="M6022 8757 c-43 -71 -41 -85 3 -17 31 48 41 70 32 70 -1 0 -17 -24
-35 -53z"/>
<path d="M3500 8780 c-11 -7 -12 -12 -4 -20 8 -8 13 -6 17 9 3 12 4 21 4 21
-1 0 -9 -5 -17 -10z"/>
<path d="M5901 8774 c0 -11 3 -14 6 -6 3 7 2 16 -1 19 -3 4 -6 -2 -5 -13z"/>
<path d="M6515 8760 c-10 -11 -15 -20 -11 -20 4 0 16 9 28 20 12 11 17 20 11
20 -5 0 -18 -9 -28 -20z"/>
<path d="M3601 8755 c0 -11 6 -31 14 -45 18 -32 18 -25 0 25 -8 22 -14 31 -14
20z"/>
<path d="M6200 8740 c-12 -16 -19 -30 -16 -30 2 0 14 14 26 30 12 17 19 30 16
30 -2 0 -14 -13 -26 -30z"/>
<path d="M6255 8750 c-10 -11 -16 -22 -13 -25 3 -3 13 6 22 20 20 30 16 32 -9
5z"/>
<path d="M6640 8769 c0 -3 14 -23 30 -44 17 -21 30 -34 30 -29 -1 10 -59 82
-60 73z"/>
<path d="M3932 8735 c0 -16 2 -22 5 -12 2 9 2 23 0 30 -3 6 -5 -1 -5 -18z"/>
<path d="M5885 8704 c-3 -22 -11 -50 -16 -64 -8 -19 -8 -22 1 -13 13 12 33
103 26 111 -3 2 -8 -13 -11 -34z"/>
<path d="M3902 8720 c0 -8 4 -26 8 -40 6 -20 8 -21 8 -5 0 11 -3 29 -8 40 -5
12 -8 14 -8 5z"/>
<path d="M6451 8694 c-18 -19 -31 -38 -28 -40 2 -3 19 13 37 36 39 50 34 52
-9 4z"/>
<path d="M3095 8710 c-3 -5 -2 -10 4 -10 5 0 13 5 16 10 3 6 2 10 -4 10 -5 0
-13 -4 -16 -10z"/>
<path d="M3065 8680 c-3 -5 -1 -10 4 -10 6 0 11 5 11 10 0 6 -2 10 -4 10 -3 0
-8 -4 -11 -10z"/>
<path d="M3127 8673 c12 -32 53 -98 53 -87 0 6 -12 32 -26 58 -26 47 -39 60
-27 29z"/>
<path d="M6714 8670 c0 -13 4 -16 10 -10 7 7 7 13 0 20 -6 6 -10 3 -10 -10z"/>
<path d="M3540 8671 c0 -5 5 -13 10 -16 6 -3 10 -2 10 4 0 5 -4 13 -10 16 -5
3 -10 2 -10 -4z"/>
<path d="M3631 8670 c0 -8 4 -22 9 -30 12 -18 12 -2 0 25 -6 13 -9 15 -9 5z"/>
<path d="M5946 8639 c-15 -22 -26 -43 -23 -45 2 -2 16 14 31 37 15 22 26 43
23 45 -2 2 -16 -14 -31 -37z"/>
<path d="M6182 8664 c-7 -8 -8 -14 -3 -14 10 0 25 19 20 25 -2 1 -10 -3 -17
-11z"/>
<path d="M3010 8639 l-34 -29 39 -38 c21 -20 32 -28 24 -17 -8 11 -23 28 -33
38 -19 17 -19 18 0 32 10 8 22 15 25 15 4 0 9 7 13 15 7 19 7 19 -34 -16z"/>
<path d="M6663 8628 c-18 -11 -33 -24 -33 -29 0 -5 15 1 33 13 17 13 34 24 36
25 2 2 2 5 0 7 -2 1 -19 -6 -36 -16z"/>
<path d="M3930 8601 l5 -36 3 34 c3 26 6 31 13 20 7 -12 9 -11 9 3 0 10 -7 16
-18 15 -14 -1 -17 -7 -12 -36z"/>
<path d="M5622 8615 c0 -16 2 -22 5 -12 2 9 2 23 0 30 -3 6 -5 -1 -5 -18z"/>
<path d="M5646 8625 c4 -8 7 -15 9 -15 2 0 5 7 9 15 3 9 0 15 -9 15 -9 0 -12
-6 -9 -15z"/>
<path d="M6124 8628 c-3 -5 -1 -15 5 -21 9 -9 10 -7 5 7 -6 15 -4 18 9 13 9
-3 18 -3 21 1 3 4 -4 8 -14 9 -11 1 -22 -3 -26 -9z"/>
<path d="M6376 8615 c-9 -14 -13 -25 -9 -25 10 0 36 40 30 46 -2 3 -12 -7 -21
-21z"/>
<path d="M3572 8613 c3 -5 11 -23 18 -40 8 -18 18 -33 22 -33 5 0 -1 18 -12
40 -11 22 -23 40 -26 40 -3 0 -4 -3 -2 -7z"/>
<path d="M5860 8586 c0 -9 5 -16 10 -16 6 0 10 4 10 9 0 6 -4 13 -10 16 -5 3
-10 -1 -10 -9z"/>
<path d="M6100 8585 c0 -8 -4 -15 -9 -15 -4 0 -27 -27 -50 -60 -23 -33 -40
-60 -37 -60 7 0 116 133 116 142 0 4 -4 8 -10 8 -5 0 -10 -7 -10 -15z"/>
<path d="M6595 8580 c-3 -5 -2 -10 4 -10 5 0 13 5 16 10 3 6 2 10 -4 10 -5 0
-13 -4 -16 -10z"/>
<path d="M3947 8561 c-2 -10 1 -48 8 -82 l13 -64 -5 80 c-6 88 -8 95 -16 66z"/>
<path d="M5897 8561 c-4 -17 -3 -21 5 -13 5 5 8 16 6 23 -3 8 -7 3 -11 -10z"/>
<path d="M5631 8554 c0 -11 3 -14 6 -6 3 7 2 16 -1 19 -3 4 -6 -2 -5 -13z"/>
<path d="M6305 8540 c-10 -11 -14 -20 -9 -20 5 0 15 9 22 20 7 11 11 20 9 20
-2 0 -12 -9 -22 -20z"/>
<path d="M6522 8529 c-23 -17 -42 -33 -42 -36 0 -3 10 2 23 11 12 9 36 25 52
36 17 11 25 20 19 20 -5 0 -29 -14 -52 -31z"/>
<path d="M3060 8525 c0 -8 4 -15 10 -15 5 0 7 7 4 15 -4 8 -8 15 -10 15 -2 0
-4 -7 -4 -15z"/>
<path d="M3681 8514 c0 -11 3 -14 6 -6 3 7 2 16 -1 19 -3 4 -6 -2 -5 -13z"/>
<path d="M5646 8503 c10 -40 14 -41 14 -5 0 18 -5 32 -10 32 -6 0 -8 -11 -4
-27z"/>
<path d="M3221 8515 c0 -13 28 -50 33 -44 3 2 -4 15 -14 29 -11 14 -20 21 -19
15z"/>
<path d="M3630 8509 c0 -13 42 -101 47 -96 2 3 -7 27 -21 54 -14 26 -25 45
-26 42z"/>
<path d="M5842 8485 c-17 -38 -14 -43 8 -15 21 27 25 40 12 40 -5 0 -14 -11
-20 -25z"/>
<path d="M6235 8469 c-4 -6 -5 -12 -2 -15 2 -3 7 2 10 11 7 17 1 20 -8 4z"/>
<path d="M6435 8470 c-4 -6 -24 -20 -47 -31 -22 -11 -38 -23 -35 -25 5 -5 107
54 107 62 0 8 -19 4 -25 -6z"/>
<path d="M2890 8454 c0 -6 9 -19 20 -29 27 -24 25 -38 -2 -30 -13 3 0 -6 27
-19 59 -30 61 -31 45 -11 -7 8 -19 15 -27 15 -8 0 -12 3 -10 8 3 4 -8 23 -24
42 -16 19 -29 29 -29 24z"/>
<path d="M3250 8450 c0 -5 5 -10 11 -10 5 0 7 5 4 10 -3 6 -8 10 -11 10 -2 0
-4 -4 -4 -10z"/>
<path d="M3140 8440 c0 -5 5 -10 11 -10 5 0 7 5 4 10 -3 6 -8 10 -11 10 -2 0
-4 -4 -4 -10z"/>
<path d="M3701 8434 c0 -11 3 -14 6 -6 3 7 2 16 -1 19 -3 4 -6 -2 -5 -13z"/>
<path d="M2860 8425 c-9 -10 -9 -15 -1 -15 6 0 11 5 11 11 0 5 5 7 12 3 7 -4
8 -3 4 4 -9 15 -11 15 -26 -3z"/>
<path d="M6210 8429 c0 -5 5 -7 10 -4 6 3 10 8 10 11 0 2 -4 4 -10 4 -5 0 -10
-5 -10 -11z"/>
<path d="M6288 8368 c-27 -16 -48 -34 -48 -40 0 -8 44 20 109 69 2 2 0 3 -5 2
-5 0 -30 -14 -56 -31z"/>
<path d="M3310 8358 c0 -9 7 -22 17 -29 15 -13 15 -12 3 11 -17 34 -20 36 -20
18z"/>
<path d="M3470 8363 c1 -11 50 -46 50 -36 0 9 -36 43 -45 43 -3 0 -5 -3 -5 -7z"/>
<path d="M6126 8354 c-5 -14 -4 -15 9 -4 17 14 19 20 6 20 -5 0 -12 -7 -15
-16z"/>
<path d="M3540 8351 c0 -6 4 -13 10 -16 6 -3 7 1 4 9 -7 18 -14 21 -14 7z"/>
<path d="M3255 8320 c10 -11 22 -20 27 -20 4 0 -1 9 -12 20 -11 11 -23 20 -27
20 -3 0 2 -9 12 -20z"/>
<path d="M3725 8324 c9 -9 18 -14 21 -11 9 9 -6 27 -22 27 -13 0 -13 -2 1 -16z"/>
<path d="M3530 8310 c0 -5 5 -10 11 -10 5 0 7 5 4 10 -3 6 -8 10 -11 10 -2 0
-4 -4 -4 -10z"/>
<path d="M3347 8297 c-3 -9 1 -18 9 -21 16 -6 18 2 5 22 -7 11 -9 11 -14 -1z"/>
<path d="M3560 8299 c0 -9 10 -24 21 -35 22 -19 22 -19 11 1 -6 11 -16 27 -22
35 -8 13 -10 13 -10 -1z"/>
<path d="M6612 8279 c-18 -12 -30 -24 -27 -27 2 -3 13 2 23 11 10 10 24 17 30
17 7 0 12 5 12 10 0 13 0 13 -38 -11z"/>
<path d="M6043 8261 c-20 -26 -20 -28 -4 -49 9 -13 20 -20 24 -16 4 4 0 16
-10 26 -15 17 -15 20 7 43 13 14 19 25 14 24 -5 0 -19 -12 -31 -28z"/>
<path d="M6130 8265 c-16 -19 0 -19 26 0 16 12 16 14 3 15 -9 0 -22 -7 -29
-15z"/>
<path d="M3351 8223 c7 -12 15 -20 18 -17 3 2 -3 12 -13 22 -17 16 -18 16 -5
-5z"/>
<path d="M4630 8230 c-18 -12 -2 -12 25 0 13 6 15 9 5 9 -8 0 -22 -4 -30 -9z"/>
<path d="M6660 8230 c0 -5 5 -10 11 -10 5 0 7 5 4 10 -3 6 -8 10 -11 10 -2 0
-4 -4 -4 -10z"/>
<path d="M5367 8208 c-8 -30 -5 -30 16 -2 14 19 15 24 4 24 -8 0 -17 -10 -20
-22z"/>
<path d="M6078 8223 c7 -3 16 -2 19 1 4 3 -2 6 -13 5 -11 0 -14 -3 -6 -6z"/>
<path d="M4588 8213 c7 -3 16 -2 19 1 4 3 -2 6 -13 5 -11 0 -14 -3 -6 -6z"/>
<path d="M5328 8213 c6 -2 18 -2 25 0 6 3 1 5 -13 5 -14 0 -19 -2 -12 -5z"/>
<path d="M6505 8210 c-3 -6 1 -7 9 -4 18 7 21 14 7 14 -6 0 -13 -4 -16 -10z"/>
<path d="M4525 8200 c-13 -5 -14 -9 -5 -9 8 0 24 4 35 9 13 5 14 9 5 9 -8 0
-24 -4 -35 -9z"/>
<path d="M5250 8200 l-35 -7 32 -2 c17 0 35 4 38 9 3 6 5 9 3 9 -2 -1 -19 -5
-38 -9z"/>
<path d="M5530 8190 c0 -5 8 -10 18 -11 15 0 14 -2 -3 -10 -16 -7 -14 -8 10
-3 48 9 49 17 3 28 -17 4 -28 2 -28 -4z"/>
<path d="M6440 8179 c-17 -13 -18 -17 -5 -10 33 17 51 31 40 31 -5 0 -21 -10
-35 -21z"/>
<path d="M3408 8185 c-3 -6 9 -28 28 -50 18 -22 34 -35 34 -30 0 6 -11 22 -23
36 -13 13 -26 31 -29 39 -2 8 -7 10 -10 5z"/>
<path d="M4465 8180 c-3 -5 -1 -10 4 -10 6 0 11 5 11 10 0 6 -2 10 -4 10 -3 0
-8 -4 -11 -10z"/>
<path d="M4558 8183 c6 -2 18 -2 25 0 6 3 1 5 -13 5 -14 0 -19 -2 -12 -5z"/>
<path d="M4620 8186 c0 -2 7 -7 16 -10 8 -3 12 -2 9 4 -6 10 -25 14 -25 6z"/>
<path d="M4734 8163 c18 -35 45 -70 46 -60 0 8 -51 87 -57 87 -2 0 3 -12 11
-27z"/>
<path d="M5463 8169 c-33 -21 -40 -29 -25 -29 8 1 70 50 62 50 -3 0 -20 -10
-37 -21z"/>
<path d="M5100 8170 c-20 -6 -21 -8 -5 -8 11 0 29 3 40 8 25 11 -1 11 -35 0z"/>
<path d="M6455 8160 c-16 -7 -17 -9 -3 -9 9 -1 20 4 23 9 7 11 7 11 -20 0z"/>
<path d="M4906 8151 c-3 -4 6 -6 19 -3 14 2 25 6 25 8 0 8 -39 4 -44 -5z"/>
<path d="M4968 8153 c7 -3 16 -2 19 1 4 3 -2 6 -13 5 -11 0 -14 -3 -6 -6z"/>
<path d="M6358 8135 c-55 -32 -57 -37 -5 -19 47 16 64 29 50 37 -5 2 -25 -6
-45 -18z"/>
<path d="M4881 8134 c0 -11 3 -14 6 -6 3 7 2 16 -1 19 -3 4 -6 -2 -5 -13z"/>
<path d="M5490 8129 c0 -5 5 -7 10 -4 6 3 10 8 10 11 0 2 -4 4 -10 4 -5 0 -10
-5 -10 -11z"/>
<path d="M4628 8123 c6 -2 18 -2 25 0 6 3 1 5 -13 5 -14 0 -19 -2 -12 -5z"/>
<path d="M4355 8100 c-10 -11 -16 -22 -14 -24 2 -2 12 7 22 20 22 29 17 32 -8
4z"/>
<path d="M4578 8113 c7 -3 16 -2 19 1 4 3 -2 6 -13 5 -11 0 -14 -3 -6 -6z"/>
<path d="M2930 8100 c0 -5 5 -10 11 -10 5 0 7 5 4 10 -3 6 -8 10 -11 10 -2 0
-4 -4 -4 -10z"/>
<path d="M4513 8097 c-36 -14 -65 -37 -45 -37 7 0 12 4 12 9 0 5 13 12 30 16
16 4 32 11 35 16 7 11 9 11 -32 -4z"/>
<path d="M4406 8083 c-6 -14 -5 -15 5 -6 7 7 10 15 7 18 -3 3 -9 -2 -12 -12z"/>
<path d="M4615 8090 c-3 -5 1 -10 9 -10 8 0 18 5 21 10 3 6 -1 10 -9 10 -8 0
-18 -4 -21 -10z"/>
<path d="M5710 8096 c0 -2 15 -9 33 -15 29 -10 30 -9 13 4 -18 14 -46 20 -46
11z"/>
<path d="M2990 8070 c8 -5 20 -10 25 -10 6 0 3 5 -5 10 -8 5 -19 10 -25 10 -5
0 -3 -5 5 -10z"/>
<path d="M4520 8065 c-14 -8 -20 -14 -15 -14 6 0 21 6 35 14 14 8 21 14 15 14
-5 0 -21 -6 -35 -14z"/>
<path d="M2917 8058 c-8 -22 -3 -32 18 -35 18 -2 18 -2 3 7 -9 6 -15 17 -12
25 4 8 4 15 1 15 -3 0 -7 -6 -10 -12z"/>
<path d="M5480 8048 c-14 -6 -20 -12 -13 -15 7 -2 23 3 35 11 25 18 15 20 -22
4z"/>
<path d="M3030 8047 c0 -3 16 -14 35 -26 19 -11 35 -17 35 -12 0 7 -14 15 -62
39 -5 2 -8 1 -8 -1z"/>
<path d="M4425 8040 c-3 -5 -2 -10 4 -10 5 0 13 5 16 10 3 6 2 10 -4 10 -5 0
-13 -4 -16 -10z"/>
<path d="M5839 8011 c12 -11 31 -30 42 -42 10 -12 19 -17 19 -11 0 13 -61 72
-74 72 -5 0 1 -9 13 -19z"/>
<path d="M4811 8004 c0 -11 3 -14 6 -6 3 7 2 16 -1 19 -3 4 -6 -2 -5 -13z"/>
<path d="M4244 7994 c-18 -14 -18 -14 6 -3 31 14 36 19 24 19 -6 0 -19 -7 -30
-16z"/>
<path d="M3008 7993 c7 -3 16 -2 19 1 4 3 -2 6 -13 5 -11 0 -14 -3 -6 -6z"/>
<path d="M3052 7991 c-10 -6 -7 -10 13 -15 15 -4 30 -5 33 -1 3 3 -2 5 -10 5
-9 0 -18 4 -20 10 -2 5 -9 6 -16 1z"/>
<path d="M3146 7971 c22 -16 52 -33 67 -36 15 -4 30 -11 33 -16 3 -5 13 -9 22
-9 9 0 -1 10 -23 21 -22 12 -59 32 -83 45 -58 32 -64 30 -16 -5z"/>
<path d="M4508 7993 c7 -3 16 -2 19 1 4 3 -2 6 -13 5 -11 0 -14 -3 -6 -6z"/>
<path d="M6745 7960 c4 -6 11 -8 16 -5 14 9 11 15 -7 15 -8 0 -12 -5 -9 -10z"/>
<path d="M6683 7953 c-13 -2 -23 -8 -23 -13 0 -5 14 -4 30 1 27 10 42 21 23
18 -5 -1 -18 -4 -30 -6z"/>
<path d="M5910 7938 c0 -9 7 -22 17 -29 15 -13 15 -12 3 11 -17 34 -20 36 -20
18z"/>
<path d="M4206 7925 c-3 -8 -1 -15 4 -15 6 0 10 7 10 15 0 8 -2 15 -4 15 -2 0
-6 -7 -10 -15z"/>
<path d="M6588 7923 c6 -2 18 -2 25 0 6 3 1 5 -13 5 -14 0 -19 -2 -12 -5z"/>
<path d="M6538 7913 c7 -3 16 -2 19 1 4 3 -2 6 -13 5 -11 0 -14 -3 -6 -6z"/>
<path d="M6750 7896 c0 -8 -8 -17 -17 -19 -14 -4 -12 -5 5 -6 16 -1 22 5 22
19 0 11 -2 20 -5 20 -3 0 -5 -6 -5 -14z"/>
<path d="M3998 7883 c6 -2 18 -2 25 0 6 3 1 5 -13 5 -14 0 -19 -2 -12 -5z"/>
<path d="M4090 7880 c20 -13 33 -13 25 0 -3 6 -14 10 -23 10 -15 0 -15 -2 -2
-10z"/>
<path d="M4211 7874 c0 -11 3 -14 6 -6 3 7 2 16 -1 19 -3 4 -6 -2 -5 -13z"/>
<path d="M4831 7880 c0 -8 4 -24 9 -35 5 -13 9 -14 9 -5 0 8 -4 24 -9 35 -5
13 -9 14 -9 5z"/>
<path d="M6428 7883 c7 -3 16 -2 19 1 4 3 -2 6 -13 5 -11 0 -14 -3 -6 -6z"/>
<path d="M5940 7878 c0 -2 12 -25 26 -53 13 -27 22 -39 18 -25 -8 30 -33 80
-39 80 -3 0 -5 -1 -5 -2z"/>
<path d="M6381 7874 c-2 -19 26 -47 40 -41 11 4 11 6 -2 6 -9 1 -21 11 -27 24
-6 12 -11 17 -11 11z"/>
<path d="M6623 7863 c9 -2 25 -2 35 0 9 3 1 5 -18 5 -19 0 -27 -2 -17 -5z"/>
<path d="M4120 7851 c0 -5 5 -13 10 -16 6 -3 10 -2 10 4 0 5 -4 13 -10 16 -5
3 -10 2 -10 -4z"/>
<path d="M6568 7853 c7 -3 16 -2 19 1 4 3 -2 6 -13 5 -11 0 -14 -3 -6 -6z"/>
<path d="M6448 7843 c7 -3 16 -2 19 1 4 3 -2 6 -13 5 -11 0 -14 -3 -6 -6z"/>
<path d="M6488 7843 c7 -3 16 -2 19 1 4 3 -2 6 -13 5 -11 0 -14 -3 -6 -6z"/>
<path d="M3895 7831 c-9 -16 12 -22 37 -11 21 10 21 10 -5 5 -19 -4 -26 -2
-22 5 3 5 4 10 1 10 -3 0 -7 -4 -11 -9z"/>
<path d="M3837 7787 c-40 -37 -122 -127 -115 -127 3 0 36 31 74 68 39 38 76
71 84 74 9 3 10 7 3 11 -5 4 -26 -8 -46 -26z"/>
<path d="M4136 7797 c3 -10 9 -15 12 -12 3 3 0 11 -7 18 -10 9 -11 8 -5 -6z"/>
<path d="M2910 7756 c0 -29 3 -33 20 -29 11 3 20 9 20 14 0 5 -6 6 -13 3 -8
-3 -14 2 -14 11 0 8 7 15 16 15 14 0 14 2 1 10 -25 16 -30 12 -30 -24z"/>
<path d="M3960 7770 c-9 -6 -10 -10 -3 -10 6 0 15 5 18 10 8 12 4 12 -15 0z"/>
<path d="M3008 7763 c12 -2 32 -2 45 0 12 2 2 4 -23 4 -25 0 -35 -2 -22 -4z"/>
<path d="M3900 7750 c-12 -8 -11 -10 7 -10 12 0 25 5 28 10 8 13 -15 13 -35 0z"/>
<path d="M3876 7714 c-5 -14 -4 -15 9 -4 17 14 19 20 6 20 -5 0 -12 -7 -15
-16z"/>
<path d="M6001 7715 c0 -11 4 -27 9 -35 9 -13 10 -13 9 0 0 8 -4 24 -9 35 l-9
20 0 -20z"/>
<path d="M3955 7700 c-16 -7 -17 -9 -3 -9 9 -1 20 4 23 9 7 11 7 11 -20 0z"/>
<path d="M6500 7690 c0 -14 -7 -20 -22 -21 -23 0 -23 0 1 -10 28 -11 26 -12
35 24 4 16 2 27 -4 27 -5 0 -10 -9 -10 -20z"/>
<path d="M4223 7645 c0 -33 2 -45 4 -27 2 18 2 45 0 60 -2 15 -4 0 -4 -33z"/>
<path d="M6360 7696 c0 -2 9 -6 20 -9 11 -3 20 -1 20 4 0 5 -9 9 -20 9 -11 0
-20 -2 -20 -4z"/>
<path d="M6415 7690 c-3 -5 1 -10 9 -10 9 0 16 5 16 10 0 6 -4 10 -9 10 -6 0
-13 -4 -16 -10z"/>
<path d="M4161 7644 c0 -11 3 -14 6 -6 3 7 2 16 -1 19 -3 4 -6 -2 -5 -13z"/>
<path d="M3695 7640 c-3 -5 -1 -10 4 -10 6 0 11 5 11 10 0 6 -2 10 -4 10 -3 0
-8 -4 -11 -10z"/>
<path d="M5160 7634 c0 -16 75 -94 91 -93 9 0 8 4 -5 12 -21 13 -38 30 -66 67
-11 14 -19 20 -20 14z"/>
<path d="M6020 7614 c0 -16 5 -36 11 -44 7 -11 8 -4 3 25 -8 50 -14 58 -14 19z"/>
<path d="M5121 7625 c1 -19 18 -51 18 -35 0 8 -4 22 -9 30 -5 8 -9 11 -9 5z"/>
<path d="M5333 7595 c0 -22 2 -30 4 -17 2 12 2 30 0 40 -3 9 -5 -1 -4 -23z"/>
<path d="M3646 7582 l-30 -37 37 34 c38 36 42 42 30 40 -5 0 -21 -17 -37 -37z"/>
<path d="M4161 7603 c0 -4 4 -17 9 -28 8 -19 9 -19 9 2 1 12 -3 25 -9 28 -5 3
-10 3 -9 -2z"/>
<path d="M4221 7564 c0 -11 3 -14 6 -6 3 7 2 16 -1 19 -3 4 -6 -2 -5 -13z"/>
<path d="M5265 7570 c-3 -5 -1 -10 4 -10 6 0 11 5 11 10 0 6 -2 10 -4 10 -3 0
-8 -4 -11 -10z"/>
<path d="M5140 7563 c0 -4 5 -15 10 -23 8 -13 10 -13 10 2 0 9 -4 20 -10 23
-5 3 -10 3 -10 -2z"/>
<path d="M3570 7520 c-19 -11 -31 -19 -27 -20 11 0 67 29 67 35 0 7 -1 7 -40
-15z"/>
<path d="M4190 7520 c0 -5 5 -10 11 -10 5 0 7 5 4 10 -3 6 -8 10 -11 10 -2 0
-4 -4 -4 -10z"/>
<path d="M4432 7422 c-2 -88 -5 -111 -14 -106 -8 5 -7 0 2 -11 14 -17 15 -13
18 43 2 34 1 90 -1 125 -2 38 -4 19 -5 -51z"/>
<path d="M5166 7507 c3 -10 9 -15 12 -12 3 3 0 11 -7 18 -10 9 -11 8 -5 -6z"/>
<path d="M5341 7494 c0 -11 3 -14 6 -6 3 7 2 16 -1 19 -3 4 -6 -2 -5 -13z"/>
<path d="M3462 7466 c-31 -18 -40 -29 -17 -20 25 9 63 34 50 33 -6 -1 -20 -7
-33 -13z"/>
<path d="M6045 7443 c3 -24 12 -57 19 -75 8 -18 17 -42 21 -52 3 -10 8 -16 11
-13 3 3 -4 27 -15 52 -12 26 -21 57 -22 69 0 11 -5 30 -10 41 -7 15 -8 9 -4
-22z"/>
<path d="M4503 7410 c0 -25 2 -35 4 -22 2 12 2 32 0 45 -2 12 -4 2 -4 -23z"/>
<path d="M5352 7425 c0 -16 2 -22 5 -12 2 9 2 23 0 30 -3 6 -5 -1 -5 -18z"/>
<path d="M6130 7436 c0 -9 5 -16 10 -16 6 0 10 4 10 9 0 6 -4 13 -10 16 -5 3
-10 -1 -10 -9z"/>
<path d="M3382 7426 c-34 -19 -35 -23 -3 -18 16 2 32 10 35 18 6 17 -1 16 -32
0z"/>
<path d="M3485 7430 c-19 -8 -19 -9 3 -9 12 -1 22 4 22 9 0 6 -1 10 -2 9 -2 0
-12 -4 -23 -9z"/>
<path d="M4340 7403 c0 -5 12 -20 26 -34 24 -21 26 -22 16 -3 -13 25 -42 50
-42 37z"/>
<path d="M5220 7403 c0 -13 35 -102 44 -110 10 -10 -3 41 -21 85 -12 30 -23
41 -23 25z"/>
<path d="M6160 7403 c0 -4 5 -15 10 -23 8 -13 10 -13 10 2 0 9 -4 20 -10 23
-5 3 -10 3 -10 -2z"/>
<path d="M3520 7390 c-23 -7 -23 -8 -3 -9 12 -1 25 4 28 9 3 6 5 10 3 9 -2 -1
-14 -5 -28 -9z"/>
<path d="M3395 7355 c-25 -12 -26 -14 -5 -9 28 7 60 23 45 23 -5 0 -23 -6 -40
-14z"/>
<path d="M4512 7325 c0 -16 2 -22 5 -12 2 9 2 23 0 30 -3 6 -5 -1 -5 -18z"/>
<path d="M3390 7319 c0 -5 5 -7 10 -4 6 3 10 8 10 11 0 2 -4 4 -10 4 -5 0 -10
-5 -10 -11z"/>
<path d="M3309 7303 c-12 -15 -12 -16 4 -10 10 4 23 7 28 7 6 0 7 5 4 10 -9
15 -21 12 -36 -7z"/>
<path d="M6202 7279 c6 -16 12 -28 14 -26 5 5 -13 57 -20 57 -3 0 0 -14 6 -31z"/>
<path d="M6142 7280 c0 -14 2 -19 5 -12 2 6 2 18 0 25 -3 6 -5 1 -5 -13z"/>
<path d="M6101 7264 c0 -11 3 -14 6 -6 3 7 2 16 -1 19 -3 4 -6 -2 -5 -13z"/>
<path d="M3317 7224 c-26 -35 -17 -38 11 -3 13 16 20 29 15 29 -4 0 -16 -12
-26 -26z"/>
<path d="M4532 7230 c0 -14 2 -19 5 -12 2 6 2 18 0 25 -3 6 -5 1 -5 -13z"/>
<path d="M5415 7230 c3 -5 8 -10 11 -10 2 0 4 5 4 10 0 6 -5 10 -11 10 -5 0
-7 -4 -4 -10z"/>
<path d="M4391 7220 c0 -8 4 -22 9 -30 12 -18 12 -2 0 25 -6 13 -9 15 -9 5z"/>
<path d="M6220 7221 c0 -6 4 -13 10 -16 6 -3 7 1 4 9 -7 18 -14 21 -14 7z"/>
<path d="M5431 7194 c0 -11 3 -14 6 -6 3 7 2 16 -1 19 -3 4 -6 -2 -5 -13z"/>
<path d="M4541 7174 c0 -11 3 -14 6 -6 3 7 2 16 -1 19 -3 4 -6 -2 -5 -13z"/>
<path d="M5292 7170 c0 -14 2 -19 5 -12 2 6 2 18 0 25 -3 6 -5 1 -5 -13z"/>
<path d="M6241 7174 c0 -11 3 -14 6 -6 3 7 2 16 -1 19 -3 4 -6 -2 -5 -13z"/>
<path d="M3752 7155 c0 -16 2 -22 5 -12 2 9 2 23 0 30 -3 6 -5 -1 -5 -18z"/>
<path d="M3821 7154 c0 -11 3 -14 6 -6 3 7 2 16 -1 19 -3 4 -6 -2 -5 -13z"/>
<path d="M3282 7140 c0 -14 2 -19 5 -12 2 6 2 18 0 25 -3 6 -5 1 -5 -13z"/>
<path d="M4552 7125 c0 -16 2 -22 5 -12 2 9 2 23 0 30 -3 6 -5 -1 -5 -18z"/>
<path d="M3710 7136 c0 -2 7 -7 16 -10 8 -3 12 -2 9 4 -6 10 -25 14 -25 6z"/>
<path d="M5301 7133 c-1 -6 -4 -20 -7 -30 -5 -17 -5 -17 6 0 6 10 9 23 6 30
-3 9 -5 9 -5 0z"/>
<path d="M6265 7095 c4 -11 14 -48 22 -82 9 -35 20 -63 25 -63 5 0 6 4 3 10
-3 5 -13 35 -21 66 -8 31 -19 64 -25 73 -9 13 -9 13 -4 -4z"/>
<path d="M4442 7080 c0 -14 2 -19 5 -12 2 6 2 18 0 25 -3 6 -5 1 -5 -13z"/>
<path d="M3861 7080 c1 -8 5 -26 9 -40 l8 -25 1 25 c0 14 -4 32 -9 40 -9 13
-10 13 -9 0z"/>
<path d="M5310 7073 c0 -4 5 -15 10 -23 8 -13 10 -13 10 2 0 9 -4 20 -10 23
-5 3 -10 3 -10 -2z"/>
<path d="M3730 7051 c0 -5 7 -12 16 -15 14 -5 15 -4 4 9 -14 17 -20 19 -20 6z"/>
<path d="M4582 7030 c0 -14 2 -19 5 -12 2 6 2 18 0 25 -3 6 -5 1 -5 -13z"/>
<path d="M5491 7024 c0 -11 3 -14 6 -6 3 7 2 16 -1 19 -3 4 -6 -2 -5 -13z"/>
<path d="M3891 6984 c0 -11 3 -14 6 -6 3 7 2 16 -1 19 -3 4 -6 -2 -5 -13z"/>
<path d="M4471 6974 c0 -11 3 -14 6 -6 3 7 2 16 -1 19 -3 4 -6 -2 -5 -13z"/>
<path d="M4591 6974 c0 -11 3 -14 6 -6 3 7 2 16 -1 19 -3 4 -6 -2 -5 -13z"/>
<path d="M3283 6910 c0 -25 2 -35 4 -22 2 12 2 32 0 45 -2 12 -4 2 -4 -23z"/>
<path d="M6321 6914 c0 -11 3 -14 6 -6 3 7 2 16 -1 19 -3 4 -6 -2 -5 -13z"/>
<path d="M5361 6894 c0 -11 3 -14 6 -6 3 7 2 16 -1 19 -3 4 -6 -2 -5 -13z"/>
<path d="M470 6890 c0 -5 5 -10 11 -10 5 0 7 5 4 10 -3 6 -8 10 -11 10 -2 0
-4 -4 -4 -10z"/>
<path d="M3133 6878 c9 -7 18 -31 20 -53 3 -35 4 -34 5 13 2 47 0 52 -20 52
-20 0 -20 -1 -5 -12z"/>
<path d="M4621 6874 c0 -11 3 -14 6 -6 3 7 2 16 -1 19 -3 4 -6 -2 -5 -13z"/>
<path d="M6460 6870 c0 -11 2 -20 4 -20 2 0 6 9 9 20 3 11 1 20 -4 20 -5 0 -9
-9 -9 -20z"/>
<path d="M6320 6869 c0 -5 5 -7 10 -4 6 3 10 8 10 11 0 2 -4 4 -10 4 -5 0 -10
-5 -10 -11z"/>
<path d="M4491 6854 c-1 -21 19 -88 24 -82 2 2 -3 26 -10 53 -8 28 -14 41 -14
29z"/>
<path d="M5371 6850 c0 -14 4 -32 9 -40 9 -13 10 -13 9 0 -1 8 -5 26 -9 40
l-8 25 -1 -25z"/>
<path d="M500 6841 c0 -5 5 -13 10 -16 6 -3 10 -2 10 4 0 5 -4 13 -10 16 -5 3
-10 2 -10 -4z"/>
<path d="M5542 6830 c0 -14 2 -19 5 -12 2 6 2 18 0 25 -3 6 -5 1 -5 -13z"/>
<path d="M6281 6834 c0 -11 3 -14 6 -6 3 7 2 16 -1 19 -3 4 -6 -2 -5 -13z"/>
<path d="M9080 6828 c-12 -22 -12 -22 6 -6 10 10 15 20 12 24 -4 3 -12 -5 -18
-18z"/>
<path d="M6300 6800 c0 -5 5 -10 11 -10 5 0 7 5 4 10 -3 6 -8 10 -11 10 -2 0
-4 -4 -4 -10z"/>
<path d="M546 6765 c9 -14 18 -25 20 -25 2 0 -2 11 -8 25 -6 14 -15 25 -20 25
-5 0 -1 -11 8 -25z"/>
<path d="M3285 6780 c3 -5 8 -10 11 -10 2 0 4 5 4 10 0 6 -5 10 -11 10 -5 0
-7 -4 -4 -10z"/>
<path d="M5551 6774 c0 -11 3 -14 6 -6 3 7 2 16 -1 19 -3 4 -6 -2 -5 -13z"/>
<path d="M6480 6771 c0 -25 6 -27 13 -6 4 8 2 17 -3 20 -6 4 -10 -3 -10 -14z"/>
<path d="M3150 6769 c0 -5 5 -7 10 -4 6 3 10 8 10 11 0 2 -4 4 -10 4 -5 0 -10
-5 -10 -11z"/>
<path d="M3942 6765 c0 -11 4 -31 8 -45 6 -20 8 -21 8 -5 0 11 -4 31 -8 45 -6
20 -8 21 -8 5z"/>
<path d="M4651 6773 c0 -4 4 -17 9 -28 8 -19 9 -19 9 2 1 12 -3 25 -9 28 -5 3
-10 3 -9 -2z"/>
<path d="M6242 6750 c0 -19 2 -27 5 -17 2 9 2 25 0 35 -3 9 -5 1 -5 -18z"/>
<path d="M4522 6740 c0 -14 2 -19 5 -12 2 6 2 18 0 25 -3 6 -5 1 -5 -13z"/>
<path d="M3301 6734 c0 -11 3 -14 6 -6 3 7 2 16 -1 19 -3 4 -6 -2 -5 -13z"/>
<path d="M3150 6730 c0 -5 5 -10 10 -10 6 0 10 5 10 10 0 6 -4 10 -10 10 -5 0
-10 -4 -10 -10z"/>
<path d="M3857 6726 c-3 -8 -2 -27 3 -43 8 -26 8 -25 9 15 1 43 -3 52 -12 28z"/>
<path d="M5401 6724 c0 -11 3 -14 6 -6 3 7 2 16 -1 19 -3 4 -6 -2 -5 -13z"/>
<path d="M6488 6733 c6 -2 18 -2 25 0 6 3 1 5 -13 5 -14 0 -19 -2 -12 -5z"/>
<path d="M9015 6729 c-11 -16 -1 -19 13 -3 7 8 8 14 3 14 -5 0 -13 -5 -16 -11z"/>
<path d="M3317 6692 c3 -12 9 -25 14 -28 14 -8 11 10 -6 32 -13 18 -14 18 -8
-4z"/>
<path d="M6252 6690 c0 -14 2 -19 5 -12 2 6 2 18 0 25 -3 6 -5 1 -5 -13z"/>
<path d="M600 6681 c5 -11 15 -23 21 -27 6 -3 3 5 -6 20 -20 30 -30 35 -15 7z"/>
<path d="M6023 6691 c-34 -3 -64 -9 -67 -12 -9 -9 118 3 129 12 5 5 7 8 5 7
-3 0 -33 -4 -67 -7z"/>
<path d="M8983 6675 c-6 -14 -7 -23 -2 -19 13 8 31 44 22 44 -4 0 -13 -11 -20
-25z"/>
<path d="M3961 6680 c0 -8 4 -24 9 -35 5 -13 9 -14 9 -5 0 8 -4 24 -9 35 -5
13 -9 14 -9 5z"/>
<path d="M6108 6683 c7 -3 16 -2 19 1 4 3 -2 6 -13 5 -11 0 -14 -3 -6 -6z"/>
<path d="M796 6667 c3 -10 9 -15 12 -12 3 3 0 11 -7 18 -10 9 -11 8 -5 -6z"/>
<path d="M8795 6669 c-4 -6 -5 -12 -2 -15 2 -3 7 2 10 11 7 17 1 20 -8 4z"/>
<path d="M5410 6656 c0 -8 5 -18 10 -21 6 -3 10 1 10 9 0 8 -4 18 -10 21 -5 3
-10 -1 -10 -9z"/>
<path d="M5572 6655 c0 -11 4 -33 8 -50 7 -27 8 -27 8 -5 0 14 -4 36 -8 50 -6
20 -8 21 -8 5z"/>
<path d="M3340 6645 c0 -5 5 -17 10 -25 5 -8 10 -10 10 -5 0 6 -5 17 -10 25
-5 8 -10 11 -10 5z"/>
<path d="M630 6631 c0 -5 5 -13 10 -16 6 -3 10 -2 10 4 0 5 -4 13 -10 16 -5 3
-10 2 -10 -4z"/>
<path d="M4696 6627 c3 -10 9 -15 12 -12 3 3 0 11 -7 18 -10 9 -11 8 -5 -6z"/>
<path d="M5847 6629 c-9 -5 -22 -7 -29 -3 -7 4 -8 3 -4 -4 4 -7 2 -12 -3 -12
-6 0 -11 -4 -11 -10 0 -5 16 0 35 11 19 12 35 23 35 25 0 6 -3 5 -23 -7z"/>
<path d="M8946 6614 c-10 -14 -16 -28 -13 -30 2 -3 12 7 21 22 10 14 16 28 13
30 -2 3 -12 -7 -21 -22z"/>
<path d="M825 6620 c3 -5 8 -10 11 -10 2 0 4 5 4 10 0 6 -5 10 -11 10 -5 0 -7
-4 -4 -10z"/>
<path d="M6262 6600 c0 -14 2 -19 5 -12 2 6 2 18 0 25 -3 6 -5 1 -5 -13z"/>
<path d="M1010 6602 c0 -4 8 -16 17 -27 12 -15 14 -16 10 -3 -3 9 -1 18 6 21
6 2 1 6 -11 9 -12 4 -22 3 -22 0z"/>
<path d="M5988 6603 c7 -3 16 -2 19 1 4 3 -2 6 -13 5 -11 0 -14 -3 -6 -6z"/>
<path d="M6500 6587 c0 -13 -2 -46 -5 -73 -7 -64 2 -45 13 29 5 32 5 60 1 63
-5 3 -9 -6 -9 -19z"/>
<path d="M6530 6600 c0 -5 5 -10 11 -10 5 0 7 5 4 10 -3 6 -8 10 -11 10 -2 0
-4 -4 -4 -10z"/>
<path d="M8477 6598 c-7 -4 9 -8 36 -8 26 0 47 2 47 4 0 8 -71 12 -83 4z"/>
<path d="M660 6591 c0 -5 5 -13 10 -16 6 -3 10 -2 10 4 0 5 -4 13 -10 16 -5 3
-10 2 -10 -4z"/>
<path d="M1093 6593 c9 -2 23 -2 30 0 6 3 -1 5 -18 5 -16 0 -22 -2 -12 -5z"/>
<path d="M3196 6585 c4 -8 8 -15 10 -15 2 0 4 7 4 15 0 8 -4 15 -10 15 -5 0
-7 -7 -4 -15z"/>
<path d="M4711 6584 c0 -11 3 -14 6 -6 3 7 2 16 -1 19 -3 4 -6 -2 -5 -13z"/>
<path d="M5948 6593 c7 -3 16 -2 19 1 4 3 -2 6 -13 5 -11 0 -14 -3 -6 -6z"/>
<path d="M6603 6593 c26 -2 67 -2 90 0 23 2 2 3 -48 3 -49 0 -68 -1 -42 -3z"/>
<path d="M8570 6589 c0 -5 5 -7 10 -4 6 3 10 8 10 11 0 2 -4 4 -10 4 -5 0 -10
-5 -10 -11z"/>
<path d="M8747 6593 c-4 -3 -7 -11 -7 -17 0 -6 5 -5 12 2 6 6 9 14 7 17 -3 3
-9 2 -12 -2z"/>
<path d="M5765 6580 c-3 -6 1 -7 9 -4 18 7 21 14 7 14 -6 0 -13 -4 -16 -10z"/>
<path d="M3886 6545 c11 -48 25 -76 18 -35 -4 19 -10 42 -15 50 -6 10 -7 5 -3
-15z"/>
<path d="M5440 6565 c0 -5 5 -17 10 -25 5 -8 10 -10 10 -5 0 6 -5 17 -10 25
-5 8 -10 11 -10 5z"/>
<path d="M5591 6554 c0 -11 3 -14 6 -6 3 7 2 16 -1 19 -3 4 -6 -2 -5 -13z"/>
<path d="M5830 6560 c-13 -9 -13 -10 0 -9 8 0 24 4 35 9 l20 9 -20 0 c-11 0
-27 -4 -35 -9z"/>
<path d="M8556 6553 c-6 -14 -5 -15 5 -6 7 7 10 15 7 18 -3 3 -9 -2 -12 -12z"/>
<path d="M680 6555 c0 -2 9 -19 20 -37 23 -39 27 -30 5 12 -14 27 -25 38 -25
25z"/>
<path d="M877 6543 c8 -23 53 -90 53 -80 0 10 -50 97 -56 97 -2 0 0 -8 3 -17z"/>
<path d="M6122 6546 c-31 -18 -40 -29 -17 -20 25 9 63 34 50 33 -6 -1 -20 -7
-33 -13z"/>
<path d="M8705 6534 c-9 -14 -14 -28 -12 -31 3 -3 13 9 22 26 19 38 14 41 -10
5z"/>
<path d="M3381 6545 c1 -19 18 -51 18 -35 0 8 -4 22 -9 30 -5 8 -9 11 -9 5z"/>
<path d="M4598 6506 c9 -25 18 -43 20 -41 6 5 -21 85 -28 85 -4 0 0 -20 8 -44z"/>
<path d="M4742 6520 c0 -14 2 -19 5 -12 2 6 2 18 0 25 -3 6 -5 1 -5 -13z"/>
<path d="M8887 6519 c-4 -16 -3 -18 9 -8 16 13 19 29 5 29 -5 0 -11 -9 -14
-21z"/>
<path d="M1075 6500 c3 -5 8 -10 11 -10 2 0 4 5 4 10 0 6 -5 10 -11 10 -5 0
-7 -4 -4 -10z"/>
<path d="M5620 6495 c0 -15 48 -95 57 -95 3 0 -4 16 -16 36 -12 19 -21 41 -21
49 0 8 -4 17 -10 20 -5 3 -10 -1 -10 -10z"/>
<path d="M6155 6499 c-4 -6 -5 -12 -2 -15 2 -3 7 2 10 11 7 17 1 20 -8 4z"/>
<path d="M8510 6500 c0 -5 5 -10 10 -10 6 0 10 5 10 10 0 6 -4 10 -10 10 -5 0
-10 -4 -10 -10z"/>
<path d="M5960 6485 c-7 -9 -8 -15 -2 -15 5 0 12 7 16 15 3 8 4 15 2 15 -2 0
-9 -7 -16 -15z"/>
<path d="M6172 6454 c-23 -25 -35 -40 -25 -35 30 18 59 45 66 64 8 22 9 23
-41 -29z"/>
<path d="M3411 6474 c0 -11 3 -14 6 -6 3 7 2 16 -1 19 -3 4 -6 -2 -5 -13z"/>
<path d="M8670 6475 c-7 -9 -11 -18 -8 -20 3 -3 11 1 18 10 7 9 11 18 8 20 -3
3 -11 -1 -18 -10z"/>
<path d="M1106 6450 c20 -43 24 -47 24 -29 0 8 -10 25 -21 39 l-20 25 17 -35z"/>
<path d="M6110 6470 c-8 -5 -10 -10 -5 -10 6 0 17 5 25 10 8 5 11 10 5 10 -5
0 -17 -5 -25 -10z"/>
<path d="M8485 6448 l-16 -33 20 25 c20 24 26 40 16 40 -2 0 -12 -15 -20 -32z"/>
<path d="M4036 6450 c7 -28 12 -35 18 -29 2 2 -2 15 -10 29 l-15 25 7 -25z"/>
<path d="M5836 6462 c-2 -4 11 -6 30 -4 19 2 34 6 34 8 0 8 -59 4 -64 -4z"/>
<path d="M3921 6455 c1 -19 18 -51 18 -35 0 8 -4 22 -9 30 -5 8 -9 11 -9 5z"/>
<path d="M3260 6441 c0 -5 5 -13 10 -16 6 -3 10 -2 10 4 0 5 -4 13 -10 16 -5
3 -10 2 -10 -4z"/>
<path d="M6326 6442 c-3 -5 -1 -22 4 -38 8 -29 8 -29 9 9 1 36 -3 45 -13 29z"/>
<path d="M760 6436 c0 -2 11 -24 25 -47 30 -53 33 -44 5 11 -18 35 -30 49 -30
36z"/>
<path d="M5248 6433 c7 -3 16 -2 19 1 4 3 -2 6 -13 5 -11 0 -14 -3 -6 -6z"/>
<path d="M8816 6411 c-23 -43 -20 -52 5 -12 11 18 18 35 15 38 -2 3 -12 -9
-20 -26z"/>
<path d="M5195 6420 c-3 -6 1 -7 9 -4 18 7 21 14 7 14 -6 0 -13 -4 -16 -10z"/>
<path d="M5970 6420 l-35 -7 38 -2 c20 0 37 4 37 9 0 6 -1 9 -2 9 -2 -1 -19
-5 -38 -9z"/>
<path d="M960 6414 c0 -13 18 -39 24 -34 2 3 -2 14 -10 24 -8 11 -14 16 -14
10z"/>
<path d="M5120 6409 c0 -5 5 -7 10 -4 6 3 10 8 10 11 0 2 -4 4 -10 4 -5 0 -10
-5 -10 -11z"/>
<path d="M5158 6413 c7 -3 16 -2 19 1 4 3 -2 6 -13 5 -11 0 -14 -3 -6 -6z"/>
<path d="M5848 6413 c7 -3 16 -2 19 1 4 3 -2 6 -13 5 -11 0 -14 -3 -6 -6z"/>
<path d="M1140 6399 c0 -8 7 -23 15 -33 11 -14 15 -16 15 -5 0 8 -7 23 -15 33
-11 14 -15 16 -15 5z"/>
<path d="M3281 6405 c0 -5 8 -26 19 -45 11 -19 19 -30 19 -25 0 6 -8 26 -19
45 -11 19 -19 31 -19 25z"/>
<path d="M4061 6400 c0 -18 27 -79 28 -64 1 7 -6 27 -14 45 -8 19 -14 27 -14
19z"/>
<path d="M4780 6404 c1 -16 29 -60 29 -44 0 8 -6 24 -14 34 -8 11 -15 16 -15
10z"/>
<path d="M5310 6400 c-9 -6 -10 -10 -3 -10 6 0 15 5 18 10 8 12 4 12 -15 0z"/>
<path d="M6302 6390 c-7 -11 -8 -20 -3 -20 9 0 24 30 18 36 -1 2 -8 -6 -15
-16z"/>
<path d="M8442 6390 c-18 -29 -15 -48 4 -22 8 12 14 27 12 32 -2 6 -9 1 -16
-10z"/>
<path d="M8620 6395 c-7 -9 -8 -15 -2 -15 5 0 12 7 16 15 3 8 4 15 2 15 -2 0
-9 -7 -16 -15z"/>
<path d="M3946 6387 c3 -10 9 -15 12 -12 3 3 0 11 -7 18 -10 9 -11 8 -5 -6z"/>
<path d="M6084 6384 c-18 -14 -18 -14 6 -3 31 14 36 19 24 19 -6 0 -19 -7 -30
-16z"/>
<path d="M4985 6380 c-13 -6 -5 -7 25 -3 25 3 47 7 49 9 9 8 -55 2 -74 -6z"/>
<path d="M5705 6370 c17 -11 35 -20 40 -20 6 0 -3 9 -20 20 -16 11 -34 20 -40
20 -5 0 4 -9 20 -20z"/>
<path d="M5473 6340 c0 -25 2 -35 4 -22 2 12 2 32 0 45 -2 12 -4 2 -4 -23z"/>
<path d="M990 6364 c0 -5 7 -18 15 -28 8 -11 15 -16 15 -10 0 5 -7 18 -15 28
-8 11 -15 16 -15 10z"/>
<path d="M3460 6360 c0 -5 5 -10 11 -10 5 0 7 5 4 10 -3 6 -8 10 -11 10 -2 0
-4 -4 -4 -10z"/>
<path d="M6322 6350 c0 -14 2 -19 5 -12 2 6 2 18 0 25 -3 6 -5 1 -5 -13z"/>
<path d="M6452 6333 c-6 -20 -10 -39 -8 -41 2 -2 9 13 16 33 7 20 10 38 8 41
-3 2 -10 -13 -16 -33z"/>
<path d="M8592 6350 c-18 -29 -15 -38 4 -12 9 13 14 25 12 27 -2 2 -9 -5 -16
-15z"/>
<path d="M5190 6350 c-8 -5 -10 -10 -5 -10 6 0 17 5 25 10 8 5 11 10 5 10 -5
0 -17 -5 -25 -10z"/>
<path d="M5980 6350 c-21 -7 -21 -8 -5 -9 11 0 27 4 35 9 18 11 5 11 -30 0z"/>
<path d="M6265 6350 c-3 -5 -1 -10 4 -10 6 0 11 5 11 10 0 6 -2 10 -4 10 -3 0
-8 -4 -11 -10z"/>
<path d="M820 6341 c0 -5 5 -13 10 -16 6 -3 10 -2 10 4 0 5 -4 13 -10 16 -5 3
-10 2 -10 -4z"/>
<path d="M4821 6338 c-1 -9 4 -30 11 -45 15 -36 79 -123 90 -123 5 0 -3 12
-17 28 -23 23 -58 88 -78 142 -4 12 -6 12 -6 -2z"/>
<path d="M8765 6335 c-5 -11 -10 -24 -13 -30 -3 -5 3 -3 13 7 9 9 15 22 12 30
-3 9 -7 7 -12 -7z"/>
<path d="M1186 6327 c3 -10 9 -15 12 -12 3 3 0 11 -7 18 -10 9 -11 8 -5 -6z"/>
<path d="M5088 6333 c6 -2 18 -2 25 0 6 3 1 5 -13 5 -14 0 -19 -2 -12 -5z"/>
<path d="M5798 6333 c7 -3 16 -2 19 1 4 3 -2 6 -13 5 -11 0 -14 -3 -6 -6z"/>
<path d="M3480 6326 c0 -11 30 -66 36 -66 2 0 -3 15 -12 33 -19 36 -24 44 -24
33z"/>
<path d="M3970 6320 c0 -5 5 -10 11 -10 5 0 7 5 4 10 -3 6 -8 10 -11 10 -2 0
-4 -4 -4 -10z"/>
<path d="M5853 6323 c9 -2 23 -2 30 0 6 3 -1 5 -18 5 -16 0 -22 -2 -12 -5z"/>
<path d="M3321 6305 c0 -11 4 -27 9 -35 9 -13 10 -13 9 0 0 8 -4 24 -9 35 l-9
20 0 -20z"/>
<path d="M5300 6305 c-14 -8 -20 -14 -14 -15 5 0 19 7 30 15 24 18 16 19 -16
0z"/>
<path d="M6310 6306 c0 -8 -4 -16 -8 -18 -5 -1 -12 -16 -16 -33 -7 -29 -6 -29
8 -9 16 23 32 74 22 74 -3 0 -6 -6 -6 -14z"/>
<path d="M4100 6305 c0 -5 5 -17 10 -25 5 -8 10 -10 10 -5 0 6 -5 17 -10 25
-5 8 -10 11 -10 5z"/>
<path d="M4686 6285 c3 -16 12 -37 21 -45 14 -14 14 -12 0 15 -8 17 -17 37
-21 45 -3 8 -4 2 0 -15z"/>
<path d="M1041 6274 c0 -11 3 -14 6 -6 3 7 2 16 -1 19 -3 4 -6 -2 -5 -13z"/>
<path d="M5355 6280 c-3 -6 1 -7 9 -4 18 7 21 14 7 14 -6 0 -13 -4 -16 -10z"/>
<path d="M6176 6275 c-11 -8 -15 -15 -10 -15 6 0 19 7 30 15 10 8 15 14 9 14
-5 0 -19 -6 -29 -14z"/>
<path d="M8546 6275 c-3 -8 -1 -15 4 -15 6 0 10 7 10 15 0 8 -2 15 -4 15 -2 0
-6 -7 -10 -15z"/>
<path d="M1221 6275 c0 -5 6 -19 14 -29 8 -11 15 -15 15 -10 0 6 -7 19 -15 30
-8 10 -14 15 -14 9z"/>
<path d="M6431 6264 c0 -11 3 -14 6 -6 3 7 2 16 -1 19 -3 4 -6 -2 -5 -13z"/>
<path d="M8347 6236 c-15 -24 -27 -47 -27 -52 0 -5 14 13 31 40 17 26 29 50
27 51 -2 2 -16 -15 -31 -39z"/>
<path d="M8721 6254 c0 -11 3 -14 6 -6 3 7 2 16 -1 19 -3 4 -6 -2 -5 -13z"/>
<path d="M5148 6253 c6 -2 18 -2 25 0 6 3 1 5 -13 5 -14 0 -19 -2 -12 -5z"/>
<path d="M5316 6245 c-11 -8 -15 -15 -10 -15 6 0 19 7 30 15 10 8 15 14 9 14
-5 0 -19 -6 -29 -14z"/>
<path d="M6110 6240 c-8 -5 -10 -10 -5 -10 6 0 17 5 25 10 8 5 11 10 5 10 -5
0 -17 -5 -25 -10z"/>
<path d="M1070 6230 c0 -5 5 -10 11 -10 5 0 7 5 4 10 -3 6 -8 10 -11 10 -2 0
-4 -4 -4 -10z"/>
<path d="M4017 6219 c4 -13 8 -18 11 -10 2 7 -1 18 -6 23 -8 8 -9 4 -5 -13z"/>
<path d="M5430 6230 c0 -5 -7 -10 -15 -10 -8 0 -15 -4 -15 -8 0 -5 -12 -14
-26 -21 -15 -6 -24 -14 -21 -17 7 -8 87 44 87 56 0 6 -2 10 -5 10 -3 0 -5 -4
-5 -10z"/>
<path d="M8514 6228 c-4 -7 -14 -23 -22 -35 -8 -13 -12 -23 -9 -23 9 0 50 61
44 66 -3 3 -8 -1 -13 -8z"/>
<path d="M3360 6226 c0 -11 40 -86 45 -86 3 0 -4 19 -16 43 -23 45 -29 54 -29
43z"/>
<path d="M3540 6222 c0 -5 10 -17 22 -28 l21 -19 -18 28 c-18 28 -25 33 -25
19z"/>
<path d="M6055 6215 c-16 -8 -23 -14 -14 -15 8 0 24 7 35 15 23 18 18 18 -21
0z"/>
<path d="M5260 6210 c-13 -8 -13 -10 2 -10 9 0 20 5 23 10 8 13 -5 13 -25 0z"/>
<path d="M6266 6205 c-9 -26 -7 -32 5 -12 6 10 9 21 6 23 -2 3 -7 -2 -11 -11z"/>
<path d="M8672 6184 c-13 -20 -22 -38 -20 -40 7 -6 50 56 46 66 -2 5 -13 -7
-26 -26z"/>
<path d="M900 6202 c0 -5 7 -15 15 -22 8 -7 15 -8 15 -2 0 5 -7 15 -15 22 -8
7 -15 8 -15 2z"/>
<path d="M3959 6193 c-13 -15 -12 -15 9 -4 23 12 28 21 13 21 -5 0 -15 -7 -22
-17z"/>
<path d="M4156 6197 c3 -10 9 -15 12 -12 3 3 0 11 -7 18 -10 9 -11 8 -5 -6z"/>
<path d="M4558 6203 c12 -2 30 -2 40 0 9 3 -1 5 -23 4 -22 0 -30 -2 -17 -4z"/>
<path d="M4720 6191 c0 -6 4 -13 10 -16 6 -3 7 1 4 9 -7 18 -14 21 -14 7z"/>
<path d="M5035 6190 c11 -5 27 -9 35 -9 9 0 8 4 -5 9 -11 5 -27 9 -35 9 -9 0
-8 -4 5 -9z"/>
<path d="M5988 6193 c6 -2 18 -2 25 0 6 3 1 5 -13 5 -14 0 -19 -2 -12 -5z"/>
<path d="M4405 6180 l-30 -8 30 -1 c17 0 37 4 45 9 13 9 13 10 0 9 -8 -1 -28
-5 -45 -9z"/>
<path d="M5098 6183 c7 -3 16 -2 19 1 4 3 -2 6 -13 5 -11 0 -14 -3 -6 -6z"/>
<path d="M5938 6183 c7 -3 16 -2 19 1 4 3 -2 6 -13 5 -11 0 -14 -3 -6 -6z"/>
<path d="M1110 6171 c0 -6 4 -13 10 -16 6 -3 7 1 4 9 -7 18 -14 21 -14 7z"/>
<path d="M5898 6173 c7 -3 16 -2 19 1 4 3 -2 6 -13 5 -11 0 -14 -3 -6 -6z"/>
<path d="M3982 6149 c-19 -30 -11 -32 11 -3 10 13 14 24 10 24 -5 0 -14 -9
-21 -21z"/>
<path d="M4620 6160 c-9 -6 -10 -10 -3 -10 6 0 15 5 18 10 8 12 4 12 -15 0z"/>
<path d="M5855 6160 c-3 -5 1 -10 9 -10 9 0 16 5 16 10 0 6 -4 10 -9 10 -6 0
-13 -4 -16 -10z"/>
<path d="M946 6135 c24 -39 24 -40 24 -28 0 6 -9 21 -21 34 l-20 24 17 -30z"/>
<path d="M3590 6155 c0 -6 23 -33 52 -60 56 -54 47 -35 -14 30 -21 22 -38 35
-38 30z"/>
<path d="M4052 6140 c0 -14 2 -19 5 -12 2 6 2 18 0 25 -3 6 -5 1 -5 -13z"/>
<path d="M4180 6151 c0 -5 7 -15 17 -22 15 -13 15 -12 4 9 -12 23 -21 28 -21
13z"/>
<path d="M1300 6148 c0 -4 14 -29 30 -55 17 -26 30 -43 30 -37 0 5 -14 29 -30
54 -16 25 -30 42 -30 38z"/>
<path d="M5278 6143 c7 -3 16 -2 19 1 4 3 -2 6 -13 5 -11 0 -14 -3 -6 -6z"/>
<path d="M6167 6125 c17 -23 33 -32 33 -19 0 7 -40 44 -47 44 -2 0 4 -11 14
-25z"/>
<path d="M6220 6135 c-7 -9 -11 -17 -9 -20 3 -2 10 5 17 15 14 24 10 26 -8 5z"/>
<path d="M8267 6106 c-15 -24 -27 -47 -27 -52 0 -4 14 14 31 40 16 27 29 50
27 52 -2 1 -16 -16 -31 -40z"/>
<path d="M3803 6133 c9 -2 25 -2 35 0 9 3 1 5 -18 5 -19 0 -27 -2 -17 -5z"/>
<path d="M4997 6130 c7 -7 38 -15 70 -16 l58 -3 -50 8 c-27 5 -59 12 -70 16
-16 7 -18 5 -8 -5z"/>
<path d="M5223 6133 c9 -2 23 -2 30 0 6 3 -1 5 -18 5 -16 0 -22 -2 -12 -5z"/>
<path d="M6392 6120 c0 -14 2 -19 5 -12 2 6 2 18 0 25 -3 6 -5 1 -5 -13z"/>
<path d="M5178 6123 c7 -3 16 -2 19 1 4 3 -2 6 -13 5 -11 0 -14 -3 -6 -6z"/>
<path d="M5805 6105 c-16 -14 -36 -25 -44 -25 -8 0 -11 -3 -7 -7 9 -9 73 25
80 43 7 18 6 18 -29 -11z"/>
<path d="M8631 6113 c-7 -8 -24 -36 -37 -61 -25 -49 -12 -35 32 32 26 40 29
55 5 29z"/>
<path d="M3945 6110 c-3 -5 -1 -10 4 -10 6 0 11 5 11 10 0 6 -2 10 -4 10 -3 0
-8 -4 -11 -10z"/>
<path d="M4072 6092 c-1 -18 -10 -45 -19 -60 l-16 -27 22 21 c18 17 22 29 18
60 -3 36 -4 37 -5 6z"/>
<path d="M4293 6113 c9 -2 25 -2 35 0 9 3 1 5 -18 5 -19 0 -27 -2 -17 -5z"/>
<path d="M4650 6110 c-9 -6 -10 -10 -3 -10 6 0 15 5 18 10 8 12 4 12 -15 0z"/>
<path d="M4741 6104 c0 -11 3 -14 6 -6 3 7 2 16 -1 19 -3 4 -6 -2 -5 -13z"/>
<path d="M6052 6100 c0 -14 2 -19 5 -12 2 6 2 18 0 25 -3 6 -5 1 -5 -13z"/>
<path d="M4210 6105 c0 -5 9 -21 20 -35 11 -14 20 -20 20 -15 0 6 -9 21 -20
35 -11 14 -20 21 -20 15z"/>
<path d="M4388 6103 c12 -2 30 -2 40 0 9 3 -1 5 -23 4 -22 0 -30 -2 -17 -4z"/>
<path d="M6127 6102 c-3 -4 3 -23 14 -42 21 -39 25 -36 7 7 -6 15 -11 31 -10
36 2 9 -5 9 -11 -1z"/>
<path d="M3970 6090 c0 -5 5 -10 10 -10 6 0 10 5 10 10 0 6 -4 10 -10 10 -5 0
-10 -4 -10 -10z"/>
<path d="M980 6084 c0 -12 38 -74 46 -74 3 0 -5 17 -17 38 -28 46 -29 47 -29
36z"/>
<path d="M6368 6037 c-22 -65 -23 -81 -3 -44 14 27 31 97 24 97 -2 0 -12 -24
-21 -53z"/>
<path d="M3460 6064 c0 -5 7 -18 15 -28 8 -11 15 -16 15 -10 0 5 -7 18 -15 28
-8 11 -15 16 -15 10z"/>
<path d="M3860 6054 l-35 -14 35 5 c19 3 39 10 44 15 14 14 -2 12 -44 -6z"/>
<path d="M4525 6064 c-6 -2 -37 -8 -70 -14 l-60 -9 61 4 c53 4 134 24 94 24
-8 -1 -20 -3 -25 -5z"/>
<path d="M3980 6035 c-11 -13 -10 -14 4 -9 9 3 16 10 16 15 0 13 -6 11 -20 -6z"/>
<path d="M4620 6040 c-13 -8 -13 -10 2 -10 9 0 20 5 23 10 8 13 -5 13 -25 0z"/>
<path d="M4712 6030 c-7 -11 -8 -20 -3 -20 9 0 24 30 18 36 -1 2 -8 -6 -15
-16z"/>
<path d="M5653 6043 c9 -2 25 -2 35 0 9 3 1 5 -18 5 -19 0 -27 -2 -17 -5z"/>
<path d="M8391 6032 c-17 -31 -13 -40 5 -14 9 13 14 26 11 29 -3 2 -10 -4 -16
-15z"/>
<path d="M1204 6027 c3 -10 6 -22 6 -27 0 -4 7 -10 15 -14 16 -6 11 9 -16 44
-9 13 -10 12 -5 -3z"/>
<path d="M6081 6024 c0 -11 3 -14 6 -6 3 7 2 16 -1 19 -3 4 -6 -2 -5 -13z"/>
<path d="M3740 6020 c-13 -8 -12 -10 3 -10 9 0 17 5 17 10 0 12 -1 12 -20 0z"/>
<path d="M4275 6020 c3 -5 8 -10 11 -10 2 0 4 5 4 10 0 6 -5 10 -11 10 -5 0
-7 -4 -4 -10z"/>
<path d="M5513 6023 c9 -2 25 -2 35 0 9 3 1 5 -18 5 -19 0 -27 -2 -17 -5z"/>
<path d="M5448 6013 c6 -2 18 -2 25 0 6 3 1 5 -13 5 -14 0 -19 -2 -12 -5z"/>
<path d="M3512 5999 c10 -5 15 -17 12 -27 -5 -14 -4 -14 4 -2 12 16 -2 40 -22
40 -6 0 -3 -5 6 -11z"/>
<path d="M5330 6004 c-8 -1 -55 -7 -105 -14 -127 -15 -158 -21 -153 -26 3 -2
52 1 109 7 57 6 125 12 151 14 59 4 101 24 48 22 -19 -1 -42 -2 -50 -3z"/>
<path d="M1036 5987 c3 -10 9 -15 12 -12 3 3 0 11 -7 18 -10 9 -11 8 -5 -6z"/>
<path d="M3775 5990 c11 -5 27 -9 35 -9 9 0 8 4 -5 9 -11 5 -27 9 -35 9 -9 0
-8 -4 5 -9z"/>
<path d="M3868 5993 c7 -3 16 -2 19 1 4 3 -2 6 -13 5 -11 0 -14 -3 -6 -6z"/>
<path d="M4010 5990 c-8 -5 -31 -10 -50 -11 -19 0 -46 -5 -60 -9 -16 -5 -2 -6
35 -3 50 5 133 32 100 32 -5 1 -17 -4 -25 -9z"/>
<path d="M4448 5993 c6 -2 18 -2 25 0 6 3 1 5 -13 5 -14 0 -19 -2 -12 -5z"/>
<path d="M4508 5993 c7 -3 16 -2 19 1 4 3 -2 6 -13 5 -11 0 -14 -3 -6 -6z"/>
<path d="M4675 5990 c-3 -6 1 -7 9 -4 18 7 21 14 7 14 -6 0 -13 -4 -16 -10z"/>
<path d="M5459 5993 c24 -3 55 -12 70 -21 l26 -16 -19 22 c-16 18 -29 22 -70
20 l-51 -1 44 -4z"/>
<path d="M6092 5980 c0 -14 2 -19 5 -12 2 6 2 18 0 25 -3 6 -5 1 -5 -13z"/>
<path d="M8555 5989 c-4 -6 -5 -12 -2 -15 2 -3 7 2 10 11 7 17 1 20 -8 4z"/>
<path d="M1406 5975 c4 -8 11 -15 16 -15 6 0 5 6 -2 15 -7 8 -14 15 -16 15 -2
0 -1 -7 2 -15z"/>
<path d="M8180 5975 c-8 -9 -8 -15 -2 -15 12 0 26 19 19 26 -2 2 -10 -2 -17
-11z"/>
<path d="M8351 5963 c-10 -26 -10 -27 4 -9 8 11 15 23 15 28 0 15 -7 8 -19
-19z"/>
<path d="M4630 5970 c-13 -8 -13 -10 2 -10 9 0 20 5 23 10 8 13 -5 13 -25 0z"/>
<path d="M1240 5961 c0 -5 5 -13 10 -16 6 -3 10 -2 10 4 0 5 -4 13 -10 16 -5
3 -10 2 -10 -4z"/>
<path d="M4350 5966 c0 -2 7 -6 15 -10 8 -3 15 -1 15 4 0 6 -7 10 -15 10 -8 0
-15 -2 -15 -4z"/>
<path d="M1071 5940 c14 -31 19 -36 19 -24 0 6 -7 19 -16 30 -14 18 -14 18 -3
-6z"/>
<path d="M4570 5950 c-13 -9 -13 -10 0 -10 8 0 22 5 30 10 13 9 13 10 0 10 -8
0 -22 -5 -30 -10z"/>
<path d="M6336 5951 c-4 -7 -5 -15 -2 -18 9 -9 19 4 14 18 -4 11 -6 11 -12 0z"/>
<path d="M8521 5942 c-17 -31 -13 -40 5 -14 9 13 14 26 11 29 -3 2 -10 -4 -16
-15z"/>
<path d="M1431 5934 c0 -11 3 -14 6 -6 3 7 2 16 -1 19 -3 4 -6 -2 -5 -13z"/>
<path d="M4425 5940 c36 -9 111 -12 103 -4 -4 3 -35 7 -70 8 -43 2 -53 1 -33
-4z"/>
<path d="M6098 5915 c-3 -22 -9 -51 -12 -65 -4 -17 -1 -14 9 9 9 18 15 48 13
65 -3 30 -4 29 -10 -9z"/>
<path d="M8161 5934 c0 -11 3 -14 6 -6 3 7 2 16 -1 19 -3 4 -6 -2 -5 -13z"/>
<path d="M3590 5930 c0 -5 5 -10 11 -10 5 0 7 5 4 10 -3 6 -8 10 -11 10 -2 0
-4 -4 -4 -10z"/>
<path d="M5338 5913 c6 -2 18 -2 25 0 6 3 1 5 -13 5 -14 0 -19 -2 -12 -5z"/>
<path d="M5398 5913 c7 -3 16 -2 19 1 4 3 -2 6 -13 5 -11 0 -14 -3 -6 -6z"/>
<path d="M8306 5895 c-9 -14 -13 -25 -8 -25 5 0 14 11 20 25 6 14 10 25 8 25
-2 0 -11 -11 -20 -25z"/>
<path d="M5218 5903 c12 -2 32 -2 45 0 12 2 2 4 -23 4 -25 0 -35 -2 -22 -4z"/>
<path d="M1100 5895 c0 -5 5 -17 10 -25 5 -8 10 -10 10 -5 0 6 -5 17 -10 25
-5 8 -10 11 -10 5z"/>
<path d="M5116 5890 c6 -6 21 -6 39 -1 30 9 30 9 -9 10 -26 1 -37 -2 -30 -9z"/>
<path d="M8122 5879 c-7 -11 -11 -23 -9 -25 7 -7 29 24 25 36 -2 6 -9 1 -16
-11z"/>
<path d="M8482 5875 c-17 -37 -14 -45 4 -12 9 16 14 31 11 33 -2 2 -9 -7 -15
-21z"/>
<path d="M1291 5885 c0 -5 6 -19 14 -29 8 -11 15 -15 15 -10 0 6 -7 19 -15 30
-8 10 -14 15 -14 9z"/>
<path d="M1470 5872 c6 -13 14 -21 18 -18 3 4 -2 14 -12 24 -18 16 -18 16 -6
-6z"/>
<path d="M6300 5868 c-12 -22 -12 -22 6 -6 10 10 15 20 12 24 -4 3 -12 -5 -18
-18z"/>
<path d="M3680 5875 c0 -6 76 -45 87 -45 10 0 -69 49 -79 50 -5 0 -8 -2 -8 -5z"/>
<path d="M4174 5868 c-5 -8 -2 -9 9 -5 10 4 28 -4 46 -18 42 -36 48 -31 8 5
-37 32 -52 37 -63 18z"/>
<path d="M4978 5873 c7 -3 16 -2 19 1 4 3 -2 6 -13 5 -11 0 -14 -3 -6 -6z"/>
<path d="M4947 5851 c-4 -17 -3 -21 5 -13 5 5 8 16 6 23 -3 8 -7 3 -11 -10z"/>
<path d="M8276 5843 c-6 -14 -5 -15 5 -6 7 7 10 15 7 18 -3 3 -9 -2 -12 -12z"/>
<path d="M4785 5840 c-3 -5 -2 -10 4 -10 5 0 12 -8 14 -17 3 -11 5 -7 6 10 1
27 -12 36 -24 17z"/>
<path d="M5452 5805 c-2 -54 -23 -95 -49 -95 -9 0 -14 -3 -10 -6 12 -12 45 8
57 35 6 16 10 48 7 72 l-4 44 -1 -50z"/>
<path d="M5578 5803 c6 -60 16 -73 56 -72 l31 2 -30 4 c-37 6 -45 17 -45 71 0
23 -4 42 -9 42 -5 0 -6 -21 -3 -47z"/>
<path d="M1330 5810 c0 -5 5 -10 11 -10 5 0 7 5 4 10 -3 6 -8 10 -11 10 -2 0
-4 -4 -4 -10z"/>
<path d="M3963 5813 c9 -2 23 -2 30 0 6 3 -1 5 -18 5 -16 0 -22 -2 -12 -5z"/>
<path d="M6040 5805 c-11 -13 -10 -14 4 -9 9 3 16 10 16 15 0 13 -6 11 -20 -6z"/>
<path d="M6265 5809 c-4 -6 -5 -12 -2 -15 2 -3 7 2 10 11 7 17 1 20 -8 4z"/>
<path d="M8257 5813 c-4 -3 -7 -11 -7 -17 0 -6 5 -5 12 2 6 6 9 14 7 17 -3 3
-9 2 -12 -2z"/>
<path d="M4280 5796 c8 -8 26 -17 40 -21 21 -5 20 -3 -8 14 -37 24 -53 27 -32
7z"/>
<path d="M8075 5799 c-4 -6 -5 -12 -2 -15 2 -3 7 2 10 11 7 17 1 20 -8 4z"/>
<path d="M4678 5793 c7 -3 16 -2 19 1 4 3 -2 6 -13 5 -11 0 -14 -3 -6 -6z"/>
<path d="M1536 5777 c3 -10 9 -15 12 -12 3 3 0 11 -7 18 -10 9 -11 8 -5 -6z"/>
<path d="M4630 5780 c-8 -5 -10 -10 -5 -10 6 0 17 5 25 10 8 5 11 10 5 10 -5
0 -17 -5 -25 -10z"/>
<path d="M5995 5780 c-3 -6 1 -7 9 -4 18 7 21 14 7 14 -6 0 -13 -4 -16 -10z"/>
<path d="M6216 5747 c-24 -34 -26 -38 -7 -22 23 20 45 54 39 60 -2 2 -16 -15
-32 -38z"/>
<path d="M1175 5770 c3 -5 8 -10 11 -10 2 0 4 5 4 10 0 6 -5 10 -11 10 -5 0
-7 -4 -4 -10z"/>
<path d="M4802 5770 c0 -8 4 -26 8 -40 6 -20 8 -21 8 -5 0 11 -3 29 -8 40 -5
12 -8 14 -8 5z"/>
<path d="M5920 5770 c0 -13 11 -13 30 0 12 8 11 10 -7 10 -13 0 -23 -4 -23
-10z"/>
<path d="M4398 5763 c12 -2 32 -2 45 0 12 2 2 4 -23 4 -25 0 -35 -2 -22 -4z"/>
<path d="M4528 5763 c12 -2 32 -2 45 0 12 2 2 4 -23 4 -25 0 -35 -2 -22 -4z"/>
<path d="M1370 5750 c0 -5 5 -10 11 -10 5 0 7 5 4 10 -3 6 -8 10 -11 10 -2 0
-4 -4 -4 -10z"/>
<path d="M4936 5747 c3 -10 9 -15 12 -12 3 3 0 11 -7 18 -10 9 -11 8 -5 -6z"/>
<path d="M8210 5750 c0 -5 5 -10 10 -10 6 0 10 5 10 10 0 6 -4 10 -10 10 -5 0
-10 -4 -10 -10z"/>
<path d="M1199 5735 c17 -33 31 -51 31 -40 0 6 -10 21 -21 35 -13 17 -17 18
-10 5z"/>
<path d="M5738 5743 c12 -2 30 -2 40 0 9 3 -1 5 -23 4 -22 0 -30 -2 -17 -4z"/>
<path d="M8021 5719 c-7 -12 -10 -23 -8 -26 3 -3 11 5 17 17 15 28 8 35 -9 9z"/>
<path d="M1391 5725 c0 -5 6 -19 14 -29 8 -11 15 -15 15 -10 0 6 -7 19 -15 30
-8 10 -14 15 -14 9z"/>
<path d="M1569 5715 c17 -34 31 -51 31 -39 0 7 -9 22 -21 35 -16 19 -18 20
-10 4z"/>
<path d="M8190 5716 c-6 -9 -10 -21 -8 -28 3 -8 9 -4 17 10 15 28 9 39 -9 18z"/>
<path d="M8365 5700 c-3 -5 -1 -10 4 -10 6 0 11 5 11 10 0 6 -2 10 -4 10 -3 0
-8 -4 -11 -10z"/>
<path d="M5348 5693 c6 -2 18 -2 25 0 6 3 1 5 -13 5 -14 0 -19 -2 -12 -5z"/>
<path d="M6130 5680 l-25 -21 28 12 c15 7 27 16 27 21 0 11 -1 10 -30 -12z"/>
<path d="M5280 5679 c0 -5 5 -7 10 -4 6 3 10 8 10 11 0 2 -4 4 -10 4 -5 0 -10
-5 -10 -11z"/>
<path d="M1249 5655 c17 -34 31 -51 31 -39 0 7 -9 22 -21 35 -16 19 -18 20
-10 4z"/>
<path d="M5208 5663 c7 -3 16 -2 19 1 4 3 -2 6 -13 5 -11 0 -14 -3 -6 -6z"/>
<path d="M8343 5658 c-20 -26 -26 -41 -15 -34 12 7 36 46 29 46 -3 0 -9 -6
-14 -12z"/>
<path d="M5093 5653 c9 -2 25 -2 35 0 9 3 1 5 -18 5 -19 0 -27 -2 -17 -5z"/>
<path d="M5048 5643 c7 -3 16 -2 19 1 4 3 -2 6 -13 5 -11 0 -14 -3 -6 -6z"/>
<path d="M6058 5643 c7 -3 16 -2 19 1 4 3 -2 6 -13 5 -11 0 -14 -3 -6 -6z"/>
<path d="M7948 5599 c-16 -27 -26 -49 -24 -49 8 0 57 82 54 90 -2 5 -15 -13
-30 -41z"/>
<path d="M8135 5618 l-16 -33 21 24 c11 13 20 27 20 32 0 18 -10 8 -25 -23z"/>
<path d="M1620 5631 c0 -5 5 -13 10 -16 6 -3 10 -2 10 4 0 5 -4 13 -10 16 -5
3 -10 2 -10 -4z"/>
<path d="M4988 5633 c6 -2 18 -2 25 0 6 3 1 5 -13 5 -14 0 -19 -2 -12 -5z"/>
<path d="M5985 5630 c-25 -11 1 -11 35 0 20 6 21 8 5 8 -11 0 -29 -3 -40 -8z"/>
<path d="M4840 5624 c0 -13 18 -39 24 -34 2 3 -2 14 -10 24 -8 11 -14 16 -14
10z"/>
<path d="M5928 5613 c7 -3 16 -2 19 1 4 3 -2 6 -13 5 -11 0 -14 -3 -6 -6z"/>
<path d="M5833 5603 c9 -2 25 -2 35 0 9 3 1 5 -18 5 -19 0 -27 -2 -17 -5z"/>
<path d="M5493 5593 c15 -2 39 -2 55 0 15 2 2 4 -28 4 -30 0 -43 -2 -27 -4z"/>
<path d="M5658 5593 c7 -3 16 -2 19 1 4 3 -2 6 -13 5 -11 0 -14 -3 -6 -6z"/>
<path d="M5728 5593 c12 -2 30 -2 40 0 9 3 -1 5 -23 4 -22 0 -30 -2 -17 -4z"/>
<path d="M1301 5575 c0 -5 6 -19 14 -29 8 -11 15 -15 15 -10 0 6 -7 19 -15 30
-8 10 -14 15 -14 9z"/>
<path d="M5325 5565 l-40 -14 45 5 c25 4 49 10 55 15 13 13 -12 10 -60 -6z"/>
<path d="M8281 5559 c-7 -12 -10 -23 -8 -26 3 -3 11 5 17 17 15 28 8 35 -9 9z"/>
<path d="M1670 5551 c0 -5 5 -13 10 -16 6 -3 10 -2 10 4 0 5 -4 13 -10 16 -5
3 -10 2 -10 -4z"/>
<path d="M5208 5543 c7 -3 16 -2 19 1 4 3 -2 6 -13 5 -11 0 -14 -3 -6 -6z"/>
<path d="M1520 5520 c6 -11 13 -20 16 -20 2 0 0 9 -6 20 -6 11 -13 20 -16 20
-2 0 0 -9 6 -20z"/>
<path d="M5153 5533 c9 -2 23 -2 30 0 6 3 -1 5 -18 5 -16 0 -22 -2 -12 -5z"/>
<path d="M8070 5520 c-6 -11 -8 -20 -6 -20 3 0 10 9 16 20 6 11 8 20 6 20 -3
0 -10 -9 -16 -20z"/>
<path d="M4930 5520 c8 -5 26 -10 39 -10 32 0 24 6 -19 14 -25 4 -31 3 -20 -4z"/>
<path d="M5083 5523 c9 -2 23 -2 30 0 6 3 -1 5 -18 5 -16 0 -22 -2 -12 -5z"/>
<path d="M1335 5510 c3 -5 8 -10 11 -10 2 0 4 5 4 10 0 6 -5 10 -11 10 -5 0
-7 -4 -4 -10z"/>
<path d="M1700 5511 c0 -6 4 -12 8 -15 5 -3 9 1 9 9 0 8 -4 15 -9 15 -4 0 -8
-4 -8 -9z"/>
<path d="M8246 5504 c-9 -24 -2 -26 12 -4 7 11 8 20 3 20 -5 0 -12 -7 -15 -16z"/>
<path d="M1540 5485 c0 -5 9 -21 20 -35 11 -14 20 -20 20 -15 0 6 -9 21 -20
35 -11 14 -20 21 -20 15z"/>
<path d="M7870 5479 c0 -5 5 -7 10 -4 6 3 10 8 10 11 0 2 -4 4 -10 4 -5 0 -10
-5 -10 -11z"/>
<path d="M1731 5463 c7 -12 15 -20 18 -17 3 2 -3 12 -13 22 -17 16 -18 16 -5
-5z"/>
<path d="M8039 5463 c-13 -16 -12 -17 4 -4 16 13 21 21 13 21 -2 0 -10 -8 -17
-17z"/>
<path d="M8210 5450 c-6 -11 -7 -20 -2 -20 6 0 12 9 15 20 3 11 3 20 1 20 -2
0 -8 -9 -14 -20z"/>
<path d="M7847 5441 c-4 -17 -3 -21 5 -13 5 5 8 16 6 23 -3 8 -7 3 -11 -10z"/>
<path d="M1755 5420 c21 -39 47 -70 58 -69 9 0 8 2 0 6 -7 2 -13 10 -13 17 0
7 -12 23 -27 37 -14 13 -23 17 -18 9z"/>
<path d="M8176 5388 l-18 -33 21 25 c18 22 26 40 18 40 -1 0 -11 -15 -21 -32z"/>
<path d="M1411 5395 c0 -5 6 -19 14 -29 8 -11 15 -15 15 -10 0 6 -7 19 -15 30
-8 10 -14 15 -14 9z"/>
<path d="M7802 5370 c-7 -11 -8 -20 -3 -20 9 0 24 30 18 36 -1 2 -8 -6 -15
-16z"/>
<path d="M1610 5370 c0 -5 5 -10 11 -10 5 0 7 5 4 10 -3 6 -8 10 -11 10 -2 0
-4 -4 -4 -10z"/>
<path d="M7975 5369 c-4 -6 -5 -12 -2 -15 2 -3 7 2 10 11 7 17 1 20 -8 4z"/>
<path d="M1650 5310 c6 -11 13 -20 16 -20 2 0 0 9 -6 20 -6 11 -13 20 -16 20
-2 0 0 -9 6 -20z"/>
<path d="M7947 5323 c-4 -3 -7 -11 -7 -17 0 -6 5 -5 12 2 6 6 9 14 7 17 -3 3
-9 2 -12 -2z"/>
<path d="M1300 5300 c-19 -6 -14 -8 22 -7 27 1 48 5 48 10 0 9 -37 8 -70 -3z"/>
<path d="M8255 5300 c11 -5 31 -8 45 -8 l25 0 -25 8 c-14 4 -34 8 -45 8 l-20
1 20 -9z"/>
<path d="M1208 5283 c12 -2 30 -2 40 0 9 3 -1 5 -23 4 -22 0 -30 -2 -17 -4z"/>
<path d="M7917 5283 c-4 -3 -7 -11 -7 -17 0 -6 5 -5 12 2 6 6 9 14 7 17 -3 3
-9 2 -12 -2z"/>
<path d="M8340 5286 c0 -7 61 -13 65 -6 2 3 -12 7 -31 8 -19 2 -34 1 -34 -2z"/>
<path d="M1148 5273 c7 -3 16 -2 19 1 4 3 -2 6 -13 5 -11 0 -14 -3 -6 -6z"/>
<path d="M8438 5273 c7 -3 16 -2 19 1 4 3 -2 6 -13 5 -11 0 -14 -3 -6 -6z"/>
<path d="M1098 5263 c7 -3 16 -2 19 1 4 3 -2 6 -13 5 -11 0 -14 -3 -6 -6z"/>
<path d="M8488 5263 c7 -3 16 -2 19 1 4 3 -2 6 -13 5 -11 0 -14 -3 -6 -6z"/>
<path d="M1008 5243 c6 -2 18 -2 25 0 6 3 1 5 -13 5 -14 0 -19 -2 -12 -5z"/>
<path d="M1705 5226 c10 -14 19 -26 22 -26 7 0 -17 39 -28 46 -6 3 -3 -5 6
-20z"/>
<path d="M2111 5233 c-21 -17 -41 -81 -71 -226 -14 -72 -5 -87 54 -87 50 0 83
28 88 75 3 26 0 30 -24 33 -23 3 -30 -2 -38 -24 -20 -52 -20 -17 1 77 11 52
25 99 31 104 7 7 9 3 5 -12 -5 -20 -1 -23 29 -23 20 0 34 5 34 13 0 6 3 21 6
33 13 47 -70 74 -115 37z"/>
<path d="M2321 5118 c-17 -73 -34 -148 -37 -166 l-7 -33 69 3 c67 3 69 4 72
31 3 24 0 27 -27 27 -26 0 -31 4 -31 23 0 34 12 45 50 49 31 3 35 6 38 36 3
30 1 32 -27 32 -24 0 -31 4 -31 19 0 40 11 51 51 51 37 0 39 2 39 30 l0 30
-64 0 -64 0 -31 -132z"/>
<path d="M2572 5108 c-18 -79 -35 -153 -38 -165 -6 -21 -3 -23 28 -23 l34 0
14 68 c11 55 15 63 21 42 4 -14 7 -44 8 -68 l1 -43 37 3 c36 3 38 4 49 58 6
30 19 89 28 130 33 145 33 140 -2 140 -29 0 -30 -2 -48 -77 l-18 -78 -10 78
-9 77 -31 0 -32 0 -32 -142z"/>
<path d="M2857 5243 c-4 -3 -7 -17 -7 -30 0 -18 5 -23 25 -23 14 0 25 -3 25
-6 0 -7 -49 -223 -56 -246 -4 -15 1 -18 29 -18 l34 0 29 133 c30 130 31 132
60 137 23 4 30 11 32 33 l3 27 -84 0 c-46 0 -87 -3 -90 -7z"/>
<path d="M3135 5238 c-3 -10 -44 -185 -69 -300 -3 -14 3 -18 29 -18 29 0 34 4
39 30 3 17 9 44 12 60 3 17 10 30 16 30 6 0 8 -6 5 -14 -3 -7 -9 -34 -12 -60
l-7 -46 30 0 c28 0 31 4 42 49 6 27 10 60 8 74 -1 13 3 31 10 40 7 8 18 43 24
77 11 57 10 64 -7 76 -24 18 -114 19 -120 2z m60 -87 c-4 -17 -11 -31 -16 -31
-9 0 -3 43 8 63 10 17 15 -3 8 -32z"/>
<path d="M3400 5230 c-11 -11 -22 -30 -25 -42 -3 -13 -16 -70 -30 -127 -30
-125 -25 -141 39 -141 67 0 80 18 110 148 31 135 32 158 7 172 -31 16 -79 12
-101 -10z m30 -155 c-12 -52 -26 -95 -31 -95 -6 0 -8 8 -5 18 3 9 13 49 21 87
22 95 27 112 32 98 3 -7 -5 -56 -17 -108z"/>
<path d="M3847 5243 c-3 -5 -19 -71 -36 -148 -18 -77 -34 -148 -37 -157 -5
-16 2 -18 55 -18 81 0 91 12 124 157 32 141 33 149 8 163 -23 12 -108 14 -114
3z m43 -157 c-13 -53 -26 -99 -31 -102 -12 -7 -12 0 11 96 24 101 29 115 36
107 3 -3 -4 -49 -16 -101z"/>
<path d="M4096 5228 c-3 -13 -18 -80 -35 -150 -17 -70 -31 -135 -31 -143 0
-13 12 -15 68 -13 65 3 67 4 70 31 3 24 0 27 -27 27 -24 0 -31 4 -31 19 0 38
11 51 46 51 27 0 35 5 40 24 8 32 -2 46 -32 46 -25 0 -28 9 -18 48 5 18 13 22
45 22 37 0 39 2 39 30 l0 30 -65 0 c-59 0 -65 -2 -69 -22z"/>
<path d="M4510 5236 c0 -8 -3 -21 -6 -30 -5 -13 1 -16 26 -16 30 0 32 -2 25
-27 -9 -34 -55 -236 -55 -241 0 -2 14 -2 32 0 l32 3 31 130 c29 124 31 130 57
133 23 3 37 23 38 55 0 4 -40 7 -90 7 -71 0 -90 -3 -90 -14z"/>
<path d="M4785 5213 c-3 -21 -19 -93 -36 -161 -16 -67 -29 -125 -29 -127 0 -3
16 -5 35 -5 29 0 35 4 35 21 0 31 22 99 31 99 5 0 6 -6 4 -12 -3 -7 -9 -34
-14 -60 l-8 -48 32 0 c32 0 33 1 44 60 7 33 9 65 6 71 -4 6 -1 18 7 27 12 14
38 104 38 132 0 24 -34 40 -85 40 l-53 0 -7 -37z m69 -61 c-4 -18 -10 -32 -15
-32 -12 0 -11 13 1 46 14 35 22 26 14 -14z"/>
<path d="M5047 5243 c-3 -5 -19 -71 -36 -148 -18 -77 -34 -148 -37 -157 -5
-16 3 -18 64 -18 64 0 70 2 76 23 9 35 8 37 -29 37 -38 0 -40 5 -25 44 8 21
16 26 44 26 28 0 35 4 40 25 9 35 1 45 -35 45 -27 0 -29 2 -23 28 10 40 12 42
49 42 32 0 45 13 45 46 0 11 -15 14 -64 14 -36 0 -67 -3 -69 -7z"/>
<path d="M5291 5228 c-5 -13 -16 -59 -26 -103 -10 -44 -24 -105 -31 -135 -19
-72 -19 -72 19 -68 l32 3 32 140 c18 77 35 150 38 163 5 19 1 22 -25 22 -22 0
-33 -6 -39 -22z"/>
<path d="M5470 5242 c0 -6 -43 -206 -65 -299 -5 -20 -1 -23 28 -23 32 0 33 1
48 68 l15 67 10 -65 c9 -63 10 -65 41 -68 23 -2 33 1 37 15 11 39 66 285 66
299 0 9 -11 14 -29 14 -28 0 -30 -3 -48 -77 l-20 -78 -8 78 -7 77 -34 0 c-19
0 -34 -3 -34 -8z"/>
<path d="M5784 5225 c-9 -14 -39 -89 -65 -166 l-48 -139 34 0 c29 0 36 4 41
25 3 14 13 25 21 25 11 0 13 -7 9 -25 -6 -23 -4 -25 28 -25 l34 0 21 143 c12
78 23 151 24 162 2 17 -5 21 -40 23 -36 3 -44 -1 -59 -23z m12 -182 c-10 -26
-18 -8 -9 23 5 21 8 24 11 11 2 -10 1 -25 -2 -34z"/>
<path d="M6005 5238 c-2 -7 -18 -76 -35 -153 -17 -77 -33 -146 -35 -152 -3 -9
7 -13 29 -13 l33 0 19 83 19 82 3 -82 c3 -83 3 -83 30 -83 24 0 31 8 61 75 18
42 35 74 37 72 2 -1 -3 -27 -11 -57 -22 -81 -20 -90 15 -90 23 0 31 5 35 23 2
12 18 80 35 151 16 70 30 135 30 143 0 11 -11 13 -46 11 l-46 -3 -38 -90 -39
-90 -1 93 0 92 -45 0 c-28 0 -47 -5 -50 -12z"/>
<path d="M6380 5224 c-6 -14 -10 -31 -10 -39 0 -12 -45 -210 -56 -247 -5 -16
3 -18 65 -18 55 0 71 3 71 14 0 8 3 21 6 30 5 13 -1 16 -31 16 -34 0 -37 2
-31 23 3 12 6 28 6 35 0 7 15 12 39 12 34 0 39 3 44 27 7 37 2 43 -34 43 -27
0 -29 2 -23 28 10 40 12 42 49 42 32 0 45 13 45 46 0 11 -16 14 -65 14 -61 0
-66 -2 -75 -26z"/>
<path d="M6632 5213 c-24 -96 -62 -269 -62 -280 0 -8 13 -13 30 -13 25 0 30 5
39 38 6 20 11 47 11 59 0 12 5 25 10 28 6 4 10 -6 10 -22 0 -15 3 -45 6 -65 6
-35 9 -38 40 -38 32 0 33 1 44 58 7 31 23 102 36 157 13 55 24 104 24 108 0 5
-15 7 -32 5 -32 -3 -33 -5 -48 -70 -8 -38 -18 -68 -22 -68 -4 0 -8 30 -10 68
l-3 67 -32 3 c-30 3 -33 0 -41 -35z"/>
<path d="M6895 5235 c-3 -8 -7 -22 -10 -30 -3 -11 4 -15 25 -15 17 0 30 -3 30
-6 0 -8 -49 -226 -56 -246 -4 -15 1 -18 28 -18 l34 0 30 133 c27 123 31 132
54 136 28 3 40 17 40 44 0 15 -11 17 -85 17 -67 0 -87 -3 -90 -15z"/>
<path d="M7182 5227 c-29 -31 -82 -260 -66 -285 16 -25 95 -28 117 -5 9 11 30
77 47 147 29 121 29 130 14 147 -25 28 -85 25 -112 -4z m36 -134 c-22 -102
-26 -118 -34 -110 -11 10 33 197 46 197 4 0 -2 -39 -12 -87z"/>
<path d="M7893 5238 c-22 -29 -24 -41 -3 -20 12 13 20 25 17 28 -2 2 -9 -1
-14 -8z"/>
<path d="M8568 5243 c7 -3 16 -2 19 1 4 3 -2 6 -13 5 -11 0 -14 -3 -6 -6z"/>
<path d="M923 5233 c9 -2 23 -2 30 0 6 3 -1 5 -18 5 -16 0 -22 -2 -12 -5z"/>
<path d="M8653 5233 c9 -2 23 -2 30 0 6 3 -1 5 -18 5 -16 0 -22 -2 -12 -5z"/>
<path d="M858 5223 c7 -3 16 -2 19 1 4 3 -2 6 -13 5 -11 0 -14 -3 -6 -6z"/>
<path d="M793 5213 c9 -2 23 -2 30 0 6 3 -1 5 -18 5 -16 0 -22 -2 -12 -5z"/>
<path d="M8783 5213 c9 -2 23 -2 30 0 6 3 -1 5 -18 5 -16 0 -22 -2 -12 -5z"/>
<path d="M706 5202 c-2 -4 11 -6 30 -4 19 2 34 6 34 8 0 8 -59 4 -64 -4z"/>
<path d="M8865 5200 c11 -5 29 -8 40 -8 16 0 15 2 -5 8 -34 11 -60 11 -35 0z"/>
<path d="M608 5183 c6 -2 18 -2 25 0 6 3 1 5 -13 5 -14 0 -19 -2 -12 -5z"/>
<path d="M8968 5183 c6 -2 18 -2 25 0 6 3 1 5 -13 5 -14 0 -19 -2 -12 -5z"/>
<path d="M508 5163 c7 -3 16 -2 19 1 4 3 -2 6 -13 5 -11 0 -14 -3 -6 -6z"/>
<path d="M9078 5163 c7 -3 16 -2 19 1 4 3 -2 6 -13 5 -11 0 -14 -3 -6 -6z"/>
<path d="M9120 5159 c0 -5 15 -9 33 -9 17 0 43 -3 57 -7 14 -3 22 -3 19 1 -10
11 -109 24 -109 15z"/>
<path d="M428 5153 c12 -2 30 -2 40 0 9 3 -1 5 -23 4 -22 0 -30 -2 -17 -4z"/>
<path d="M7826 5135 c-18 -27 -20 -35 -8 -35 4 0 13 14 19 30 14 36 11 38 -11
5z"/>
<path d="M378 5143 c7 -3 16 -2 19 1 4 3 -2 6 -13 5 -11 0 -14 -3 -6 -6z"/>
<path d="M1765 5130 c9 -30 13 -35 21 -27 3 3 -2 16 -11 29 l-17 23 7 -25z"/>
<path d="M313 5133 c9 -2 23 -2 30 0 6 3 -1 5 -18 5 -16 0 -22 -2 -12 -5z"/>
<path d="M9278 5133 c7 -3 16 -2 19 1 4 3 -2 6 -13 5 -11 0 -14 -3 -6 -6z"/>
<path d="M248 5123 c7 -3 16 -2 19 1 4 3 -2 6 -13 5 -11 0 -14 -3 -6 -6z"/>
<path d="M9343 5123 c9 -2 17 -9 17 -14 0 -5 35 -8 78 -8 69 1 72 2 32 9 -60
10 -150 19 -127 13z"/>
<path d="M135 5110 c-34 -6 -29 -7 33 -9 47 0 71 3 67 9 -7 11 -39 11 -100 0z"/>
<path d="M360 5109 c-36 -5 -28 -6 38 -7 45 -1 82 0 82 2 0 8 -76 11 -120 5z"/>
<path d="M1689 5107 c5 -5 24 -7 42 -5 33 3 33 4 -8 8 -23 3 -39 2 -34 -3z"/>
<path d="M7840 5109 c0 -5 11 -9 25 -9 14 0 25 2 25 4 0 2 -11 6 -25 8 -14 3
-25 1 -25 -3z"/>
<path d="M9030 5110 c-9 -6 -10 -10 -3 -10 6 0 15 5 18 10 8 12 4 12 -15 0z"/>
<path d="M9183 5108 c-10 -4 6 -7 40 -7 31 -1 57 1 57 3 0 8 -80 11 -97 4z"/>
<path d="M558 5103 c7 -3 16 -2 19 1 4 3 -2 6 -13 5 -11 0 -14 -3 -6 -6z"/>
<path d="M862 5103 c147 -2 390 -2 540 0 150 1 30 2 -267 2 -297 0 -420 -1
-273 -2z"/>
<path d="M8192 5103 c147 -2 390 -2 540 0 150 1 30 2 -267 2 -297 0 -420 -1
-273 -2z"/>
<path d="M3081 4770 c0 -33 1 -34 10 -11 6 16 6 28 -1 35 -7 7 -10 -1 -9 -24z"/>
<path d="M3332 4758 c-6 -24 -43 -182 -82 -353 -38 -170 -83 -366 -99 -435
-16 -69 -41 -177 -55 -240 -15 -63 -48 -208 -75 -322 -26 -115 -45 -210 -43
-213 10 -9 399 -5 452 5 66 13 150 50 199 89 59 47 94 126 136 311 49 210 50
274 9 333 l-30 42 52 48 c29 26 62 66 73 90 29 59 111 418 111 484 0 97 -54
164 -156 192 -23 6 -132 11 -260 11 l-222 0 -10 -42z m316 -250 c17 -17 14
-60 -12 -172 -15 -63 -31 -105 -42 -113 -19 -14 -82 -28 -90 -20 -3 2 1 31 9
63 8 33 25 103 37 157 l22 97 32 0 c18 0 37 -5 44 -12z m-144 -654 c9 -8 16
-19 16 -24 0 -5 -16 -78 -36 -161 -41 -171 -61 -205 -111 -193 -16 4 -30 8
-32 10 -2 1 11 67 29 146 18 79 37 164 43 191 9 45 11 47 43 47 18 0 40 -7 48
-16z"/>
<path d="M4335 4791 c-53 -13 -116 -51 -161 -97 -81 -84 -71 -48 -295 -1034
-57 -253 -60 -280 -30 -346 10 -23 34 -53 53 -67 82 -63 278 -73 412 -23 144
54 195 127 246 351 17 77 54 237 80 355 27 118 70 305 95 415 25 110 46 223
47 250 1 94 -52 162 -149 191 -49 15 -244 18 -298 5z m115 -286 c15 -18 8 -83
-20 -195 -10 -41 -53 -228 -95 -415 -41 -187 -80 -352 -86 -366 -12 -30 -48
-53 -75 -47 -37 7 -27 67 157 857 24 100 37 140 55 158 27 27 46 29 64 8z"/>
<path d="M4800 4793 c0 -5 38 -174 85 -378 l84 -370 -180 -418 c-98 -230 -179
-422 -179 -428 0 -6 56 -8 146 -7 l146 3 81 193 c57 134 84 187 88 175 4 -10
17 -61 28 -113 12 -52 29 -131 39 -175 l18 -80 147 -3 c81 -1 147 0 147 3 0 3
-13 63 -30 133 -16 70 -58 257 -94 417 l-65 289 131 306 c72 168 146 340 164
383 l33 78 -151 -3 -152 -3 -60 -147 c-33 -82 -63 -148 -66 -148 -3 0 -12 28
-19 63 -7 34 -21 101 -32 150 l-21 87 -144 0 c-79 0 -144 -3 -144 -7z"/>
<path d="M6183 4786 c-85 -27 -162 -94 -204 -176 -22 -41 -122 -381 -115 -388
3 -2 94 17 292 63 18 4 26 21 44 86 28 105 37 124 65 139 27 15 53 8 62 -16 6
-17 -41 -247 -63 -302 -17 -41 -50 -54 -139 -51 l-70 2 -51 -164 -50 -164 80
-3 c100 -3 122 -7 130 -27 9 -24 -42 -246 -63 -275 -23 -32 -66 -38 -80 -12
-9 17 4 105 35 226 6 26 5 28 -17 21 -195 -61 -299 -99 -300 -108 0 -7 -2 -19
-4 -27 -52 -220 -52 -256 -1 -323 43 -56 80 -75 174 -89 150 -22 300 15 389
95 62 57 89 117 133 308 50 209 51 275 6 333 l-27 37 50 45 c69 62 93 119 146
355 53 230 54 271 11 336 -46 69 -95 87 -256 90 -93 2 -148 -2 -177 -11z"/>
<path d="M6990 4786 c-56 -15 -105 -44 -147 -88 -34 -35 -103 -159 -103 -184
0 -8 -27 -131 -60 -272 -128 -554 -180 -797 -180 -844 0 -86 54 -158 140 -187
56 -19 169 -24 248 -12 147 23 261 111 301 234 11 34 32 116 46 182 15 66 44
196 66 289 21 93 39 183 39 200 0 44 -38 115 -81 148 -44 36 -124 58 -207 58
-56 0 -63 2 -58 18 3 9 10 39 16 67 16 72 39 114 66 121 37 9 56 -13 52 -59
l-4 -39 116 6 c198 11 185 6 199 86 15 91 14 120 -4 163 -21 52 -66 91 -125
110 -63 20 -250 22 -320 3z m20 -781 c11 -13 4 -55 -38 -242 -53 -238 -69
-276 -115 -281 -52 -6 -51 18 5 263 40 174 57 232 75 251 25 27 55 31 73 9z"/>
<path d="M7795 4786 c-63 -20 -98 -41 -143 -86 -70 -70 -96 -139 -163 -435
-34 -148 -90 -396 -125 -549 -35 -154 -64 -297 -64 -317 0 -77 44 -143 119
-178 51 -24 67 -26 181 -25 114 0 131 2 193 28 79 33 145 92 180 163 16 31 64
217 136 533 61 267 117 505 124 530 6 25 12 86 12 136 0 83 -2 93 -27 126 -15
20 -49 47 -75 59 -42 21 -65 24 -178 26 -86 2 -143 -2 -170 -11z m129 -288
c13 -21 11 -37 -15 -153 -16 -71 -36 -159 -44 -195 -8 -36 -35 -155 -60 -265
-25 -110 -52 -231 -61 -269 -19 -90 -33 -119 -66 -130 -31 -11 -58 5 -58 33 0
10 29 145 65 302 36 156 74 327 86 379 50 224 68 285 90 303 28 23 46 22 63
-5z"/>
<path d="M1830 4760 c-18 -12 -2 -12 25 0 13 6 15 9 5 9 -8 0 -22 -4 -30 -9z"/>
<path d="M1785 4730 c-3 -5 -2 -10 4 -10 5 0 13 5 16 10 3 6 2 10 -4 10 -5 0
-13 -4 -16 -10z"/>
<path d="M3067 4703 c-4 -3 -7 -16 -6 -27 0 -19 1 -19 10 3 10 24 8 36 -4 24z"/>
<path d="M1710 4668 c-12 -22 -12 -22 6 -6 10 10 15 20 12 24 -4 3 -12 -5 -18
-18z"/>
<path d="M1673 4625 c-3 -9 -3 -18 -1 -21 3 -3 8 4 11 16 6 23 -1 27 -10 5z"/>
<path d="M3047 4611 c-4 -17 -3 -21 5 -13 5 5 8 16 6 23 -3 8 -7 3 -11 -10z"/>
<path d="M1646 4553 c-6 -14 -5 -15 5 -6 7 7 10 15 7 18 -3 3 -9 -2 -12 -12z"/>
<path d="M1968 4533 c6 -2 18 -2 25 0 6 3 1 5 -13 5 -14 0 -19 -2 -12 -5z"/>
<path d="M2018 4533 c7 -3 16 -2 19 1 4 3 -2 6 -13 5 -11 0 -14 -3 -6 -6z"/>
<path d="M2758 4515 c-3 -14 -1 -25 3 -25 5 0 9 11 9 25 0 14 -2 25 -4 25 -2
0 -6 -11 -8 -25z"/>
<path d="M2818 4533 c12 -2 32 -2 45 0 12 2 2 4 -23 4 -25 0 -35 -2 -22 -4z"/>
<path d="M1626 4479 c-4 -23 -5 -44 -2 -46 2 -2 7 14 11 37 4 23 5 43 2 46 -2
3 -7 -14 -11 -37z"/>
<path d="M2491 4482 c-6 -12 -11 -27 -11 -34 0 -7 7 0 15 16 9 16 13 31 11 33
-2 3 -9 -4 -15 -15z"/>
<path d="M1870 4420 c-7 -28 -10 -53 -8 -55 3 -3 10 18 16 47 7 28 11 53 8 55
-2 2 -9 -19 -16 -47z"/>
<path d="M2741 4429 c-6 -18 -11 -39 -10 -48 0 -9 7 4 14 29 16 51 13 67 -4
19z"/>
<path d="M2466 4398 c-3 -13 -5 -32 -5 -43 1 -11 5 -2 10 19 10 42 6 62 -5 24z"/>
<path d="M1605 4400 c-3 -5 -1 -10 4 -10 6 0 11 5 11 10 0 6 -2 10 -4 10 -3 0
-8 -4 -11 -10z"/>
<path d="M2722 4340 c0 -14 2 -19 5 -12 2 6 2 18 0 25 -3 6 -5 1 -5 -13z"/>
<path d="M1585 4310 c-4 -23 -5 -43 -2 -46 2 -3 7 14 11 37 4 23 5 44 2 46 -2
2 -7 -14 -11 -37z"/>
<path d="M1851 4330 c-1 -14 -4 -36 -6 -50 l-6 -25 11 25 c6 13 9 36 7 50 l-4
25 -2 -25z"/>
<path d="M1566 4233 c-6 -14 -5 -15 5 -6 7 7 10 15 7 18 -3 3 -9 -2 -12 -12z"/>
<path d="M2426 4199 c-4 -23 -5 -44 -2 -46 2 -2 7 14 11 37 4 23 5 43 2 46 -2
3 -7 -14 -11 -37z"/>
<path d="M2696 4227 c3 -10 9 -15 12 -12 3 3 0 11 -7 18 -10 9 -11 8 -5 -6z"/>
<path d="M1821 4204 c0 -11 3 -14 6 -6 3 7 2 16 -1 19 -3 4 -6 -2 -5 -13z"/>
<path d="M2681 4173 c0 -25 1 -26 9 -8 12 27 12 35 0 35 -5 0 -10 -12 -9 -27z"/>
<path d="M1551 4150 c-1 -14 -4 -36 -6 -50 l-6 -25 11 25 c6 13 9 36 7 50 l-4
25 -2 -25z"/>
<path d="M1801 4108 c0 -14 -4 -35 -7 -45 -5 -17 -5 -17 6 0 6 10 9 30 7 45
l-4 27 -2 -27z"/>
<path d="M2667 4103 c-3 -5 -7 -28 -11 -53 -7 -52 -1 -44 13 18 8 40 8 51 -2
35z"/>
<path d="M1520 4015 c0 -14 2 -25 4 -25 2 0 6 11 8 25 3 14 1 25 -3 25 -5 0
-9 -11 -9 -25z"/>
<path d="M1771 3974 c0 -11 3 -14 6 -6 3 7 2 16 -1 19 -3 4 -6 -2 -5 -13z"/>
<path d="M2642 3970 c0 -14 2 -19 5 -12 2 6 2 18 0 25 -3 6 -5 1 -5 -13z"/>
<path d="M2371 3953 c-1 -6 -4 -20 -7 -30 -5 -17 -5 -17 6 0 6 10 9 23 6 30
-3 9 -5 9 -5 0z"/>
<path d="M1501 3924 c0 -11 3 -14 6 -6 3 7 2 16 -1 19 -3 4 -6 -2 -5 -13z"/>
<path d="M1491 3873 c-1 -6 -4 -20 -7 -30 -5 -17 -5 -17 6 0 6 10 9 23 6 30
-3 9 -5 9 -5 0z"/>
<path d="M2345 3840 c-4 -17 -5 -34 -2 -36 3 -3 8 9 12 26 4 17 5 34 2 36 -3
3 -8 -9 -12 -26z"/>
<path d="M2604 3825 c-3 -8 -4 -20 -2 -27 3 -7 7 -1 10 15 6 29 1 36 -8 12z"/>
<path d="M1732 3795 c0 -16 2 -22 5 -12 2 9 2 23 0 30 -3 6 -5 -1 -5 -18z"/>
<path d="M2325 3760 c-3 -5 -1 -10 4 -10 6 0 11 5 11 10 0 6 -2 10 -4 10 -3 0
-8 -4 -11 -10z"/>
<path d="M1716 3747 c3 -10 9 -15 12 -12 3 3 0 11 -7 18 -10 9 -11 8 -5 -6z"/>
<path d="M1461 3738 c0 -9 -4 -25 -7 -35 -5 -14 -4 -15 5 -7 7 7 11 22 8 35
-2 13 -5 16 -6 7z"/>
<path d="M2580 3728 c0 -19 2 -20 10 -8 13 19 13 30 0 30 -5 0 -10 -10 -10
-22z"/>
<path d="M2312 3700 c0 -14 2 -19 5 -12 2 6 2 18 0 25 -3 6 -5 1 -5 -13z"/>
<path d="M1702 3661 c-7 -29 -12 -60 -11 -69 0 -9 7 10 15 42 8 33 13 64 11
69 -2 6 -8 -14 -15 -42z"/>
<path d="M2572 3675 c0 -16 2 -22 5 -12 2 9 2 23 0 30 -3 6 -5 -1 -5 -18z"/>
<path d="M2302 3645 c0 -16 2 -22 5 -12 2 9 2 23 0 30 -3 6 -5 -1 -5 -18z"/>
<path d="M1426 3595 c-3 -9 -6 -22 -5 -28 0 -7 5 -1 10 12 5 13 8 26 5 28 -2
2 -6 -3 -10 -12z"/>
<path d="M2282 3563 c-7 -25 -11 -47 -9 -50 2 -2 10 17 17 42 7 25 11 48 8 50
-2 2 -10 -16 -16 -42z"/>
<path d="M2545 3580 c3 -5 8 -10 11 -10 2 0 4 5 4 10 0 6 -5 10 -11 10 -5 0
-7 -4 -4 -10z"/>
<path d="M1682 3530 c0 -14 2 -19 5 -12 2 6 2 18 0 25 -3 6 -5 1 -5 -13z"/>
<path d="M1412 3510 c0 -14 2 -19 5 -12 2 6 2 18 0 25 -3 6 -5 1 -5 -13z"/>
<path d="M2522 3473 c-6 -32 -14 -69 -17 -83 -3 -14 1 -8 9 12 15 38 32 128
24 128 -3 0 -10 -26 -16 -57z"/>
<path d="M2262 3470 c0 -14 2 -19 5 -12 2 6 2 18 0 25 -3 6 -5 1 -5 -13z"/>
<path d="M1700 3469 c0 -5 9 -9 20 -9 11 0 20 2 20 4 0 2 -9 6 -20 9 -11 3
-20 1 -20 -4z"/>
<path d="M2112 3463 c14 -17 28 -16 28 1 0 8 -9 14 -19 13 -15 -1 -17 -4 -9
-14z"/>
<path d="M1898 3463 c34 -2 90 -2 125 0 34 2 6 3 -63 3 -69 0 -97 -1 -62 -3z"/>
<path d="M1390 3440 c0 -5 5 -10 10 -10 6 0 10 5 10 10 0 6 -4 10 -10 10 -5 0
-10 -4 -10 -10z"/>
<path d="M2111 3394 c0 -11 3 -14 6 -6 3 7 2 16 -1 19 -3 4 -6 -2 -5 -13z"/>
<path d="M1411 3320 c12 -22 24 -38 25 -37 6 6 -30 77 -39 77 -4 0 2 -18 14
-40z"/>
<path d="M2491 3334 c0 -11 3 -14 6 -6 3 7 2 16 -1 19 -3 4 -6 -2 -5 -13z"/>
<path d="M2091 3314 c0 -11 3 -14 6 -6 3 7 2 16 -1 19 -3 4 -6 -2 -5 -13z"/>
<path d="M2482 3285 c0 -16 2 -22 5 -12 2 9 2 23 0 30 -3 6 -5 -1 -5 -18z"/>
<path d="M1475 3247 c11 -8 31 -18 45 -22 24 -7 24 -6 5 8 -11 8 -31 18 -45
22 -24 7 -24 6 -5 -8z"/>
<path d="M2467 3225 c-4 -8 -2 -17 3 -20 6 -4 10 3 10 14 0 25 -6 27 -13 6z"/>
<path d="M1568 3213 c7 -3 16 -2 19 1 4 3 -2 6 -13 5 -11 0 -14 -3 -6 -6z"/>
<path d="M1810 3210 l-215 -6 228 -2 c146 -1 227 2 227 8 0 6 -6 9 -12 8 -7
-1 -110 -5 -228 -8z"/>
<path d="M2200 3210 c0 -5 5 -10 10 -10 6 0 10 5 10 10 0 6 -4 10 -10 10 -5 0
-10 -4 -10 -10z"/>
<path d="M2273 3203 c26 -2 67 -2 90 0 23 2 2 3 -48 3 -49 0 -68 -1 -42 -3z"/>
<path d="M3551 2963 c-24 -19 -54 -135 -55 -208 -1 -39 0 -40 36 -43 44 -4 78
24 78 63 0 32 -31 34 -54 3 -11 -14 -15 -17 -12 -7 2 10 10 45 17 78 11 57 29
92 29 57 0 -10 9 -16 24 -16 18 0 25 7 29 27 3 15 1 36 -4 45 -13 23 -60 23
-88 1z"/>
<path d="M3715 2853 c-16 -71 -29 -130 -30 -133 0 -3 12 -6 26 -8 24 -3 27 1
33 42 4 25 12 48 17 52 6 3 8 -5 4 -20 -17 -84 -18 -78 12 -74 26 3 29 8 40
68 7 36 18 88 25 117 15 66 3 83 -56 83 l-43 0 -28 -127z m77 42 c-2 -14 -9
-25 -14 -25 -6 0 -7 7 -4 16 3 9 6 20 6 25 0 5 4 9 9 9 4 0 6 -11 3 -25z"/>
<path d="M3957 2963 c-18 -21 -60 -191 -55 -225 4 -31 68 -38 95 -11 27 27 69
219 53 239 -17 20 -74 18 -93 -3z m27 -119 c-9 -38 -21 -73 -27 -79 -6 -7 -7
-3 -4 10 4 11 11 43 17 70 16 68 20 79 26 73 3 -3 -3 -36 -12 -74z"/>
<path d="M4160 2958 c-25 -27 -25 -63 -1 -126 13 -31 16 -54 10 -63 -7 -11 -9
-11 -9 4 0 29 -47 22 -54 -9 -9 -34 9 -54 48 -54 39 0 52 9 65 43 8 21 7 38
-5 70 -23 60 -28 97 -15 97 6 0 11 -4 11 -10 0 -5 11 -10 25 -10 22 0 25 4 25
34 0 22 -6 36 -16 40 -31 12 -64 6 -84 -16z"/>
<path d="M4360 2960 c-24 -24 -26 -83 -5 -120 8 -14 14 -38 13 -55 0 -18 -2
-22 -5 -12 -3 13 -12 17 -31 15 -24 -3 -27 -8 -27 -38 0 -33 2 -35 38 -38 71
-6 97 51 62 135 -16 39 -21 88 -6 65 4 -8 19 -12 32 -10 27 3 38 40 19 64 -18
20 -67 17 -90 -6z"/>
<path d="M4529 2965 c-1 -8 -2 -21 -3 -27 -1 -7 6 -14 14 -14 8 -1 18 -2 21
-3 4 0 -4 -43 -17 -93 -30 -118 -30 -120 3 -116 26 3 28 8 48 98 22 106 29
122 50 114 15 -6 37 33 28 49 -2 4 -35 7 -74 7 -54 0 -69 -3 -70 -15z"/>
<path d="M4728 2862 c-15 -64 -30 -125 -33 -135 -6 -14 -1 -17 23 -17 29 0 31
3 38 45 3 25 11 48 17 52 10 6 3 -49 -10 -84 -4 -11 1 -14 23 -11 26 3 30 8
37 53 5 28 15 72 23 99 28 96 19 116 -55 116 l-37 0 -26 -118z m81 51 c0 -5
-4 -17 -9 -28 -8 -18 -9 -17 -9 8 -1 15 4 27 9 27 6 0 10 -3 9 -7z"/>
<path d="M4976 2943 c-22 -46 -76 -202 -76 -220 0 -7 11 -13 24 -13 17 0 26 7
30 25 4 14 11 25 16 25 6 0 10 -11 10 -25 0 -19 5 -25 23 -25 22 0 24 7 44
128 12 70 19 130 16 135 -2 4 -19 7 -37 7 -27 0 -35 -6 -50 -37z m15 -120
c-12 -20 -14 -14 -5 12 4 9 9 14 11 11 3 -2 0 -13 -6 -23z"/>
<path d="M5166 2958 c-13 -46 -56 -230 -56 -239 0 -5 11 -9 25 -9 20 0 26 7
34 38 11 42 51 219 51 227 0 3 -11 5 -24 5 -16 0 -26 -7 -30 -22z"/>
<path d="M5285 2853 c-16 -70 -29 -130 -30 -133 0 -3 12 -6 28 -8 17 -2 27 1
27 10 0 7 6 31 12 53 l12 40 6 -50 c4 -45 8 -50 32 -53 24 -3 28 1 36 35 17
66 52 221 52 228 0 3 -12 5 -27 3 -25 -3 -29 -9 -37 -50 -4 -27 -12 -48 -17
-48 -4 0 -9 21 -11 48 -3 42 -6 47 -29 50 -25 3 -26 0 -54 -125z"/>
<path d="M5517 2858 c-15 -68 -27 -129 -27 -135 0 -7 10 -13 23 -13 22 0 26 9
52 123 15 67 30 128 32 135 4 8 -5 12 -24 12 -29 0 -29 0 -56 -122z"/>
<path d="M5685 2968 c-2 -7 -13 -58 -25 -113 -11 -55 -23 -110 -27 -122 -4
-19 -1 -23 21 -23 20 0 27 6 32 28 16 76 21 79 28 25 7 -49 10 -53 35 -53 27
0 28 3 55 122 16 67 30 128 33 135 4 9 -4 13 -25 13 -28 0 -30 -3 -43 -62 -10
-50 -14 -57 -16 -33 -9 85 -13 95 -39 95 -13 0 -26 -6 -29 -12z"/>
<path d="M5931 2962 c-16 -12 -29 -46 -47 -121 -28 -122 -25 -131 46 -131 l47
0 12 63 c7 34 15 70 18 81 4 16 1 18 -29 14 -32 -3 -34 -2 -30 24 5 34 23 49
19 16 -2 -18 3 -23 22 -23 20 0 27 7 34 35 7 28 5 36 -9 47 -25 18 -58 16 -83
-5z m-2 -196 c-9 -8 -10 -5 -5 14 3 14 6 32 7 40 1 8 4 2 6 -14 3 -16 -1 -34
-8 -40z"/>
<path d="M1977 2870 c12 -5 44 -11 70 -14 26 -3 68 -10 92 -16 24 -6 46 -9 48
-6 3 3 -12 8 -33 12 -22 4 -41 10 -44 14 -3 4 -39 10 -80 13 -47 3 -67 2 -53
-3z"/>
<path d="M7565 2870 c-22 -4 -46 -6 -55 -3 -12 3 -11 2 1 -6 12 -8 34 -8 75 0
33 6 61 13 63 15 6 6 -38 3 -84 -6z"/>
<path d="M2163 2863 c9 -2 23 -2 30 0 6 3 -1 5 -18 5 -16 0 -22 -2 -12 -5z"/>
<path d="M7138 2863 c12 -2 30 -2 40 0 9 3 -1 5 -23 4 -22 0 -30 -2 -17 -4z"/>
<path d="M7318 2863 c7 -3 16 -2 19 1 4 3 -2 6 -13 5 -11 0 -14 -3 -6 -6z"/>
<path d="M7418 2863 c7 -3 16 -2 19 1 4 3 -2 6 -13 5 -11 0 -14 -3 -6 -6z"/>
<path d="M7458 2843 c6 -2 18 -2 25 0 6 3 1 5 -13 5 -14 0 -19 -2 -12 -5z"/>
<path d="M7368 2823 c7 -3 16 -2 19 1 4 3 -2 6 -13 5 -11 0 -14 -3 -6 -6z"/>
<path d="M7308 2813 c6 -2 18 -2 25 0 6 3 1 5 -13 5 -14 0 -19 -2 -12 -5z"/>
<path d="M2360 2796 c0 -2 9 -6 20 -9 11 -3 20 -1 20 4 0 5 -9 9 -20 9 -11 0
-20 -2 -20 -4z"/>
<path d="M7180 2790 l-35 -7 32 -2 c17 0 35 4 38 9 3 6 5 9 3 9 -2 -1 -19 -5
-38 -9z"/>
<path d="M2418 2783 c6 -2 18 -2 25 0 6 3 1 5 -13 5 -14 0 -19 -2 -12 -5z"/>
<path d="M2515 2760 c28 -12 47 -12 40 0 -3 6 -18 10 -33 9 -24 0 -25 -1 -7
-9z"/>
<path d="M7045 2760 c-7 -12 12 -12 40 0 18 8 17 9 -7 9 -15 1 -30 -3 -33 -9z"/>
<path d="M2608 2743 c6 -2 18 -2 25 0 6 3 1 5 -13 5 -14 0 -19 -2 -12 -5z"/>
<path d="M6968 2743 c6 -2 18 -2 25 0 6 3 1 5 -13 5 -14 0 -19 -2 -12 -5z"/>
<path d="M2695 2730 c3 -5 10 -10 16 -10 5 0 9 5 9 10 0 6 -7 10 -16 10 -8 0
-12 -4 -9 -10z"/>
<path d="M6888 2723 c7 -3 16 -2 19 1 4 3 -2 6 -13 5 -11 0 -14 -3 -6 -6z"/>
<path d="M2793 2703 c9 -2 23 -2 30 0 6 3 -1 5 -18 5 -16 0 -22 -2 -12 -5z"/>
<path d="M6773 2703 c9 -2 25 -2 35 0 9 3 1 5 -18 5 -19 0 -27 -2 -17 -5z"/>
<path d="M2858 2693 c7 -3 16 -2 19 1 4 3 -2 6 -13 5 -11 0 -14 -3 -6 -6z"/>
<path d="M6728 2693 c7 -3 16 -2 19 1 4 3 -2 6 -13 5 -11 0 -14 -3 -6 -6z"/>
<path d="M2920 2680 c20 -13 43 -13 35 0 -3 6 -16 10 -28 10 -18 0 -19 -2 -7
-10z"/>
<path d="M6645 2680 c-8 -13 15 -13 35 0 12 8 11 10 -7 10 -12 0 -25 -4 -28
-10z"/>
<path d="M3004 2530 c0 -63 1 -89 3 -57 2 31 2 83 0 115 -2 31 -3 5 -3 -58z"/>
<path d="M6588 2538 c-3 -99 -4 -102 -28 -109 -23 -6 -22 -7 8 -8 l32 -1 0
110 c0 61 -2 110 -5 110 -2 0 -6 -46 -7 -102z"/>
<path d="M3413 2613 c37 -2 96 -2 130 0 34 2 4 3 -68 3 -71 0 -99 -1 -62 -3z"/>
<path d="M6338 2613 c12 -2 30 -2 40 0 9 3 -1 5 -23 4 -22 0 -30 -2 -17 -4z"/>
<path d="M3028 2423 c7 -3 16 -2 19 1 4 3 -2 6 -13 5 -11 0 -14 -3 -6 -6z"/>
<path d="M3248 2423 c6 -2 18 -2 25 0 6 3 1 5 -13 5 -14 0 -19 -2 -12 -5z"/>
<path d="M3538 2423 c12 -2 32 -2 45 0 12 2 2 4 -23 4 -25 0 -35 -2 -22 -4z"/>
<path d="M6343 2423 c9 -2 23 -2 30 0 6 3 -1 5 -18 5 -16 0 -22 -2 -12 -5z"/>
<path d="M5930 2409 c0 -5 5 -7 10 -4 6 3 10 8 10 11 0 2 -4 4 -10 4 -5 0 -10
-5 -10 -11z"/>
<path d="M3300 2407 c0 -4 13 -28 30 -55 16 -26 30 -42 30 -37 0 6 -14 30 -30
55 -16 25 -30 42 -30 37z"/>
<path d="M3660 2405 c0 -5 5 -17 10 -25 5 -8 10 -10 10 -5 0 6 -5 17 -10 25
-5 8 -10 11 -10 5z"/>
<path d="M4773 2393 c20 -2 54 -2 75 0 20 2 3 4 -38 4 -41 0 -58 -2 -37 -4z"/>
<path d="M4668 2383 c6 -2 18 -2 25 0 6 3 1 5 -13 5 -14 0 -19 -2 -12 -5z"/>
<path d="M6261 2357 c-30 -49 -26 -59 5 -14 14 21 24 41 21 43 -3 3 -14 -10
-26 -29z"/>
<path d="M4600 2370 c-18 -12 -2 -12 25 0 13 6 15 9 5 9 -8 0 -22 -4 -30 -9z"/>
<path d="M5015 2367 c17 -8 32 -13 34 -11 7 7 -3 12 -34 19 l-30 6 30 -14z"/>
<path d="M3506 2362 c-2 -4 4 -14 15 -20 19 -12 19 -11 9 8 -12 22 -16 24 -24
12z"/>
<path d="M4525 2340 c-8 -13 5 -13 25 0 13 8 13 10 -2 10 -9 0 -20 -4 -23 -10z"/>
<path d="M5885 2340 c-3 -5 -1 -10 4 -10 6 0 11 5 11 10 0 6 -2 10 -4 10 -3 0
-8 -4 -11 -10z"/>
<path d="M3556 2285 c9 -14 19 -24 21 -21 6 6 -20 46 -30 46 -4 0 0 -11 9 -25z"/>
<path d="M5860 2288 c-12 -22 -12 -22 6 -6 10 10 15 20 12 24 -4 3 -12 -5 -18
-18z"/>
<path d="M3380 2282 c0 -6 13 -33 30 -60 39 -61 39 -47 0 21 -16 29 -30 46
-30 39z"/>
<path d="M6027 2283 c-4 -3 -7 -11 -7 -17 0 -6 5 -5 12 2 6 6 9 14 7 17 -3 3
-9 2 -12 -2z"/>
<path d="M6186 2236 c-36 -62 -32 -72 5 -12 17 26 28 50 26 52 -3 3 -16 -15
-31 -40z"/>
<path d="M3750 2256 c0 -8 4 -17 9 -20 5 -4 7 3 4 14 -6 23 -13 26 -13 6z"/>
<path d="M4451 2244 c0 -11 3 -14 6 -6 3 7 2 16 -1 19 -3 4 -6 -2 -5 -13z"/>
<path d="M3591 2245 c0 -5 6 -21 14 -35 8 -14 14 -20 14 -15 0 6 -6 21 -14 35
-8 14 -14 21 -14 15z"/>
<path d="M4738 2233 c6 -2 18 -2 25 0 6 3 1 5 -13 5 -14 0 -19 -2 -12 -5z"/>
<path d="M4818 2233 c18 -2 45 -2 60 0 15 2 0 4 -33 4 -33 0 -45 -2 -27 -4z"/>
<path d="M5182 2220 c0 -14 2 -19 5 -12 2 6 2 18 0 25 -3 6 -5 1 -5 -13z"/>
<path d="M5980 2204 c-12 -19 -20 -37 -18 -39 2 -3 15 13 27 35 28 50 21 53
-9 4z"/>
<path d="M4442 2180 c0 -19 2 -27 5 -17 2 9 2 25 0 35 -3 9 -5 1 -5 -18z"/>
<path d="M4626 2194 c-9 -8 -16 -21 -16 -27 0 -7 5 -4 11 6 6 10 20 22 32 27
16 6 18 9 5 9 -9 1 -24 -6 -32 -15z"/>
<path d="M5000 2190 c11 -11 23 -20 27 -20 3 0 -2 9 -12 20 -10 11 -22 20 -27
20 -4 0 1 -9 12 -20z"/>
<path d="M5790 2179 c0 -5 5 -7 10 -4 6 3 10 8 10 11 0 2 -4 4 -10 4 -5 0 -10
-5 -10 -11z"/>
<path d="M3465 2140 c3 -5 8 -10 11 -10 2 0 4 5 4 10 0 6 -5 10 -11 10 -5 0
-7 -4 -4 -10z"/>
<path d="M3650 2136 c0 -8 4 -17 9 -20 5 -4 7 3 4 14 -6 23 -13 26 -13 6z"/>
<path d="M4602 2115 c-1 -25 5 -49 16 -63 17 -22 19 -22 57 -8 24 9 32 15 20
15 -11 0 -27 -4 -35 -9 -21 -13 -48 20 -53 66 l-4 39 -1 -40z"/>
<path d="M5032 2100 c0 -19 2 -27 5 -17 2 9 2 25 0 35 -3 9 -5 1 -5 -18z"/>
<path d="M3480 2115 c0 -5 9 -21 20 -35 11 -14 20 -20 20 -15 0 6 -9 21 -20
35 -11 14 -20 21 -20 15z"/>
<path d="M6095 2090 c-9 -16 -13 -30 -11 -30 3 0 12 14 21 30 9 17 13 30 11
30 -3 0 -12 -13 -21 -30z"/>
<path d="M3680 2094 c0 -13 18 -39 24 -34 2 3 -2 14 -10 24 -8 11 -14 16 -14
10z"/>
<path d="M3861 2093 c-1 -7 15 -38 34 -70 19 -32 35 -53 35 -47 0 5 -13 30
-28 55 -16 25 -32 51 -35 59 -3 9 -6 10 -6 3z"/>
<path d="M5896 2069 c-10 -17 -16 -33 -13 -36 3 -3 13 9 22 27 21 41 14 48 -9
9z"/>
<path d="M5181 2074 c0 -11 3 -14 6 -6 3 7 2 16 -1 19 -3 4 -6 -2 -5 -13z"/>
<path d="M5710 2054 c-12 -19 -20 -38 -17 -41 6 -5 47 55 47 70 0 14 -9 6 -30
-29z"/>
<path d="M4758 2063 c23 -2 61 -2 85 0 23 2 4 4 -43 4 -47 0 -66 -2 -42 -4z"/>
<path d="M4998 2049 c-10 -10 -13 -21 -8 -24 5 -3 14 4 20 16 15 27 10 30 -12
8z"/>
<path d="M4925 2050 c11 -5 27 -9 35 -9 9 0 8 4 -5 9 -11 5 -27 9 -35 9 -9 0
-8 -4 5 -9z"/>
<path d="M4451 2034 c0 -11 3 -14 6 -6 3 7 2 16 -1 19 -3 4 -6 -2 -5 -13z"/>
<path d="M5176 2033 c-6 -14 -5 -15 5 -6 7 7 10 15 7 18 -3 3 -9 -2 -12 -12z"/>
<path d="M5153 1973 c-7 -15 -11 -28 -9 -31 6 -6 28 38 24 48 -2 5 -9 -3 -15
-17z"/>
<path d="M5675 1989 c-4 -6 -5 -12 -2 -15 2 -3 7 2 10 11 7 17 1 20 -8 4z"/>
<path d="M6030 1989 c0 -5 5 -7 10 -4 6 3 10 8 10 11 0 2 -4 4 -10 4 -5 0 -10
-5 -10 -11z"/>
<path d="M3581 1953 c7 -12 15 -20 18 -17 3 2 -3 12 -13 22 -17 16 -18 16 -5
-5z"/>
<path d="M3941 1960 c0 -8 6 -24 14 -34 19 -25 19 -9 0 24 -8 14 -14 19 -14
10z"/>
<path d="M5820 1951 c-6 -12 -7 -21 -1 -21 10 0 24 30 17 37 -2 3 -9 -5 -16
-16z"/>
<path d="M4480 1937 c0 -14 -7 -30 -15 -34 -8 -5 -21 -25 -30 -47 -9 -21 -11
-35 -6 -31 6 3 11 11 11 16 0 6 14 31 32 55 24 34 29 47 20 56 -9 9 -12 6 -12
-15z"/>
<path d="M5625 1914 c-15 -25 -25 -47 -23 -49 2 -2 16 18 31 46 35 62 28 65
-8 3z"/>
<path d="M6005 1949 c-4 -6 -5 -12 -2 -15 2 -3 7 2 10 11 7 17 1 20 -8 4z"/>
<path d="M3770 1941 c0 -5 7 -15 17 -22 15 -13 15 -12 4 9 -12 23 -21 28 -21
13z"/>
<path d="M4661 1915 c-50 -24 -72 -43 -28 -26 50 20 63 24 79 22 21 -3 32 15
14 22 -7 3 -37 -5 -65 -18z"/>
<path d="M4850 1932 c-31 -4 -25 -7 45 -22 44 -9 89 -20 100 -25 11 -4 17 -5
13 0 -7 7 -123 58 -123 53 0 -1 -16 -3 -35 -6z"/>
<path d="M5120 1921 c0 -5 7 -11 14 -14 10 -4 13 -1 9 9 -6 15 -23 19 -23 5z"/>
<path d="M3980 1895 c0 -5 5 -17 10 -25 5 -8 10 -10 10 -5 0 6 -5 17 -10 25
-5 8 -10 11 -10 5z"/>
<path d="M5961 1879 c-7 -12 -10 -23 -8 -26 3 -3 11 5 17 17 15 28 8 35 -9 9z"/>
<path d="M3805 1880 c3 -5 8 -10 11 -10 2 0 4 5 4 10 0 6 -5 10 -11 10 -5 0
-7 -4 -4 -10z"/>
<path d="M5160 1871 c11 -22 30 -37 30 -24 -1 11 -26 43 -34 43 -4 0 -2 -9 4
-19z"/>
<path d="M5780 1879 c0 -5 5 -7 10 -4 6 3 10 8 10 11 0 2 -4 4 -10 4 -5 0 -10
-5 -10 -11z"/>
<path d="M5750 1840 c-6 -11 -8 -20 -6 -20 3 0 10 9 16 20 6 11 8 20 6 20 -3
0 -10 -9 -16 -20z"/>
<path d="M3840 1841 c0 -6 4 -13 10 -16 6 -3 7 1 4 9 -7 18 -14 21 -14 7z"/>
<path d="M3667 1813 c10 -16 27 -37 37 -48 20 -20 20 -20 3 5 -10 14 -22 35
-29 48 -6 12 -15 22 -20 22 -5 0 -1 -12 9 -27z"/>
<path d="M5925 1819 c-4 -6 -5 -12 -2 -15 2 -3 7 2 10 11 7 17 1 20 -8 4z"/>
<path d="M3860 1801 c0 -5 5 -13 10 -16 6 -3 10 -2 10 4 0 5 -4 13 -10 16 -5
3 -10 2 -10 -4z"/>
<path d="M4401 1769 c-7 -22 -11 -43 -8 -45 2 -2 9 14 16 37 7 22 11 43 8 45
-2 2 -9 -14 -16 -37z"/>
<path d="M4040 1791 c0 -5 5 -13 10 -16 6 -3 10 -2 10 4 0 5 -4 13 -10 16 -5
3 -10 2 -10 -4z"/>
<path d="M5716 1783 c-6 -14 -5 -15 5 -6 7 7 10 15 7 18 -3 3 -9 -2 -12 -12z"/>
<path d="M5866 1726 c-46 -82 -47 -99 -1 -23 19 32 35 62 35 67 0 4 6 11 13
13 8 4 8 6 0 6 -6 1 -27 -28 -47 -63z"/>
<path d="M5223 1710 c0 -25 2 -35 4 -22 2 12 2 32 0 45 -2 12 -4 2 -4 -23z"/>
<path d="M3721 1735 c0 -5 11 -28 24 -50 14 -22 25 -35 25 -30 0 6 -11 28 -25
50 -13 22 -24 36 -24 30z"/>
<path d="M3936 1682 c15 -27 38 -62 52 -78 27 -32 27 -31 -37 74 -41 65 -51
68 -15 4z"/>
<path d="M5651 1680 c-30 -48 -40 -74 -22 -54 14 15 63 104 58 104 -3 0 -19
-23 -36 -50z"/>
<path d="M3780 1641 c0 -6 4 -13 10 -16 6 -3 7 1 4 9 -7 18 -14 21 -14 7z"/>
<path d="M5446 1633 c-6 -14 -5 -15 5 -6 7 7 10 15 7 18 -3 3 -9 -2 -12 -12z"/>
<path d="M5806 1633 c-6 -14 -5 -15 5 -6 7 7 10 15 7 18 -3 3 -9 -2 -12 -12z"/>
<path d="M5223 1595 c0 -22 2 -30 4 -17 2 12 2 30 0 40 -3 9 -5 -1 -4 -23z"/>
<path d="M3800 1601 c0 -6 4 -13 10 -16 6 -3 7 1 4 9 -7 18 -14 21 -14 7z"/>
<path d="M5596 1593 c-6 -14 -5 -15 5 -6 7 7 10 15 7 18 -3 3 -9 -2 -12 -12z"/>
<path d="M4181 1575 c0 -5 6 -19 14 -29 8 -11 15 -15 15 -10 0 6 -7 19 -15 30
-8 10 -14 15 -14 9z"/>
<path d="M5400 1566 c-6 -9 -10 -21 -8 -28 3 -8 9 -4 17 10 15 28 9 39 -9 18z"/>
<path d="M5767 1573 c-4 -3 -7 -11 -7 -17 0 -6 5 -5 12 2 6 6 9 14 7 17 -3 3
-9 2 -12 -2z"/>
<path d="M5549 1518 c-44 -68 -46 -73 -20 -52 11 10 21 24 21 30 0 6 10 23 21
38 12 15 19 29 16 32 -2 3 -20 -19 -38 -48z"/>
<path d="M3830 1552 c0 -12 19 -26 26 -19 2 2 -2 10 -11 17 -9 8 -15 8 -15 2z"/>
<path d="M5206 1525 c-3 -8 -1 -15 4 -15 6 0 10 7 10 15 0 8 -2 15 -4 15 -2 0
-6 -7 -10 -15z"/>
<path d="M4222 1500 c7 -10 14 -18 15 -16 6 6 -9 36 -18 36 -5 0 -4 -9 3 -20z"/>
<path d="M5366 1504 c-9 -24 -2 -26 12 -4 7 11 8 20 3 20 -5 0 -12 -7 -15 -16z"/>
<path d="M4410 1502 c0 -7 11 -34 25 -60 14 -26 25 -41 25 -34 0 7 -11 34 -25
60 -14 26 -25 41 -25 34z"/>
<path d="M5720 1499 c0 -5 5 -7 10 -4 6 3 10 8 10 11 0 2 -4 4 -10 4 -5 0 -10
-5 -10 -11z"/>
<path d="M5178 1461 c-9 -22 -15 -41 -12 -41 8 0 35 62 32 72 -2 6 -11 -8 -20
-31z"/>
<path d="M4072 1470 c7 -10 14 -18 15 -16 6 6 -9 36 -18 36 -5 0 -4 -9 3 -20z"/>
<path d="M4256 1455 c10 -27 64 -115 71 -115 3 0 -10 26 -27 58 -35 62 -56 90
-44 57z"/>
<path d="M5330 1450 c-6 -11 -7 -20 -2 -20 6 0 12 9 15 20 3 11 3 20 1 20 -2
0 -8 -9 -14 -20z"/>
<path d="M4090 1430 c0 -5 5 -10 10 -10 6 0 10 5 10 10 0 6 -4 10 -10 10 -5 0
-10 -4 -10 -10z"/>
<path d="M5490 1430 c0 -5 5 -10 10 -10 6 0 10 5 10 10 0 6 -4 10 -10 10 -5 0
-10 -4 -10 -10z"/>
<path d="M5675 1419 c-4 -6 -5 -12 -2 -15 2 -3 7 2 10 11 7 17 1 20 -8 4z"/>
<path d="M5302 1404 c-7 -8 -12 -20 -9 -27 2 -7 9 -2 16 11 15 28 11 36 -7 16z"/>
<path d="M4121 1393 c7 -12 15 -20 18 -17 3 2 -3 12 -13 22 -17 16 -18 16 -5
-5z"/>
<path d="M5141 1394 c0 -11 3 -14 6 -6 3 7 2 16 -1 19 -3 4 -6 -2 -5 -13z"/>
<path d="M5470 1395 c-7 -9 -11 -18 -8 -20 3 -3 11 1 18 10 7 9 11 18 8 20 -3
3 -11 -1 -18 -10z"/>
<path d="M5110 1365 c-11 -13 -10 -14 4 -9 9 3 16 10 16 15 0 13 -6 11 -20 -6z"/>
<path d="M4517 1340 c10 -11 19 -20 21 -20 1 0 -2 9 -8 20 -6 11 -15 20 -20
20 -6 0 -2 -9 7 -20z"/>
<path d="M5625 1349 c-4 -6 -5 -12 -2 -15 2 -3 7 2 10 11 7 17 1 20 -8 4z"/>
<path d="M5413 1304 c-12 -19 -19 -34 -15 -34 11 1 44 49 40 59 -2 5 -13 -7
-25 -25z"/>
<path d="M4169 1315 c14 -30 40 -61 41 -50 0 6 -12 24 -26 40 -14 17 -21 21
-15 10z"/>
<path d="M5025 1299 c-27 -16 -47 -29 -43 -29 14 0 98 44 98 52 0 4 -1 8 -2 7
-2 -1 -25 -14 -53 -30z"/>
<path d="M4345 1310 c3 -5 8 -10 11 -10 2 0 4 5 4 10 0 6 -5 10 -11 10 -5 0
-7 -4 -4 -10z"/>
<path d="M5240 1309 c0 -5 5 -7 10 -4 6 3 10 8 10 11 0 2 -4 4 -10 4 -5 0 -10
-5 -10 -11z"/>
<path d="M5605 1309 c-4 -6 -5 -12 -2 -15 2 -3 7 2 10 11 7 17 1 20 -8 4z"/>
<path d="M4020 1264 c0 -5 7 -19 15 -30 8 -10 15 -14 15 -8 0 5 -7 19 -15 30
-8 10 -15 14 -15 8z"/>
<path d="M5561 1249 c-7 -12 -10 -23 -8 -26 3 -3 11 5 17 17 15 28 8 35 -9 9z"/>
<path d="M4668 1248 c5 -5 16 -8 23 -6 8 3 3 7 -10 11 -17 4 -21 3 -13 -5z"/>
<path d="M4925 1250 c-13 -6 -15 -9 -5 -9 8 0 22 4 30 9 18 12 2 12 -25 0z"/>
<path d="M5370 1235 c-11 -13 -10 -14 4 -9 9 3 16 10 16 15 0 13 -6 11 -20 -6z"/>
<path d="M4396 1227 c3 -10 9 -15 12 -12 3 3 0 11 -7 18 -10 9 -11 8 -5 -6z"/>
<path d="M4728 1233 c7 -3 16 -2 19 1 4 3 -2 6 -13 5 -11 0 -14 -3 -6 -6z"/>
<path d="M4800 1230 c0 -5 5 -10 10 -10 6 0 10 5 10 10 0 6 -4 10 -10 10 -5 0
-10 -4 -10 -10z"/>
<path d="M4858 1233 c6 -2 18 -2 25 0 6 3 1 5 -13 5 -14 0 -19 -2 -12 -5z"/>
<path d="M4240 1201 c0 -6 4 -13 10 -16 6 -3 7 1 4 9 -7 18 -14 21 -14 7z"/>
<path d="M5346 1193 c-6 -14 -5 -15 5 -6 7 7 10 15 7 18 -3 3 -9 -2 -12 -12z"/>
<path d="M4090 1145 c7 -9 15 -13 17 -11 7 7 -7 26 -19 26 -6 0 -6 -6 2 -15z"/>
<path d="M5315 1150 c-3 -5 -1 -10 4 -10 6 0 11 5 11 10 0 6 -2 10 -4 10 -3 0
-8 -4 -11 -10z"/>
<path d="M5501 1151 c-7 -5 -12 -14 -10 -20 2 -6 10 -2 17 9 14 22 13 23 -7
11z"/>
<path d="M4291 1124 c0 -11 3 -14 6 -6 3 7 2 16 -1 19 -3 4 -6 -2 -5 -13z"/>
<path d="M4130 1081 c0 -5 7 -15 17 -22 15 -13 15 -12 4 9 -12 23 -21 28 -21
13z"/>
<path d="M4320 1088 c0 -15 24 -58 32 -58 8 0 1 17 -22 50 -5 8 -10 12 -10 8z"/>
<path d="M4500 1071 c0 -5 5 -13 10 -16 6 -3 10 -2 10 4 0 5 -4 13 -10 16 -5
3 -10 2 -10 -4z"/>
<path d="M5086 1071 c-4 -7 -5 -15 -2 -18 9 -9 19 4 14 18 -4 11 -6 11 -12 0z"/>
<path d="M5443 1053 c-3 -10 -8 -22 -11 -27 -3 -5 0 -6 5 -3 11 7 25 47 17 47
-3 0 -7 -8 -11 -17z"/>
<path d="M4520 1033 c0 -15 19 -37 26 -31 3 4 -1 14 -10 23 -9 9 -16 13 -16 8z"/>
<path d="M5225 999 c-4 -6 -5 -12 -2 -15 2 -3 7 2 10 11 7 17 1 20 -8 4z"/>
<path d="M4370 991 c0 -6 4 -13 10 -16 6 -3 7 1 4 9 -7 18 -14 21 -14 7z"/>
<path d="M4190 980 c0 -5 5 -10 10 -10 6 0 10 5 10 10 0 6 -4 10 -10 10 -5 0
-10 -4 -10 -10z"/>
<path d="M5196 965 c-9 -26 -7 -32 5 -12 6 10 9 21 6 23 -2 3 -7 -2 -11 -11z"/>
<path d="M4210 950 c0 -5 5 -10 11 -10 5 0 7 5 4 10 -3 6 -8 10 -11 10 -2 0
-4 -4 -4 -10z"/>
<path d="M4580 944 c1 -11 70 -121 70 -110 0 10 -30 64 -52 95 -10 13 -18 20
-18 15z"/>
<path d="M5010 942 c0 -6 -8 -19 -19 -29 -10 -10 -22 -29 -25 -43 -5 -16 4 -8
25 23 17 26 29 50 25 54 -3 3 -6 1 -6 -5z"/>
<path d="M4230 923 c0 -6 8 -17 18 -24 16 -13 16 -13 2 6 -8 11 -16 22 -17 24
-2 2 -3 0 -3 -6z"/>
<path d="M4429 901 c11 -15 18 -31 14 -35 -3 -3 -1 -6 5 -6 7 0 12 3 12 6 0
12 -35 64 -43 64 -5 0 1 -13 12 -29z"/>
<path d="M5157 901 c-20 -34 -21 -41 -5 -41 6 0 8 3 5 6 -4 4 3 20 14 35 11
16 17 29 12 29 -5 0 -16 -13 -26 -29z"/>
<path d="M5330 890 c0 -5 7 -7 15 -4 8 4 15 8 15 10 0 2 -7 4 -15 4 -8 0 -15
-4 -15 -10z"/>
<path d="M4277 843 c10 -18 21 -33 26 -33 13 0 8 10 -19 38 l-25 27 18 -32z"/>
<path d="M5306 839 c-13 -26 -13 -29 -1 -19 8 7 15 18 15 25 0 8 6 16 13 18 8
4 8 6 0 6 -6 1 -18 -13 -27 -30z"/>
<path d="M4490 803 c0 -6 8 -17 18 -24 16 -13 16 -13 2 6 -8 11 -16 22 -17 24
-2 2 -3 0 -3 -6z"/>
<path d="M4897 764 c-11 -14 -17 -27 -15 -30 3 -2 14 10 27 26 12 17 18 30 14
30 -4 0 -16 -12 -26 -26z"/>
<path d="M4341 755 c0 -5 6 -19 14 -29 8 -11 15 -15 15 -10 0 6 -7 19 -15 30
-8 10 -14 15 -14 9z"/>
<path d="M5065 749 c-4 -6 -5 -12 -2 -15 2 -3 7 2 10 11 7 17 1 20 -8 4z"/>
<path d="M5241 742 c-17 -31 -13 -40 5 -14 9 13 14 26 11 29 -3 2 -10 -4 -16
-15z"/>
<path d="M4557 703 c10 -26 35 -64 40 -60 4 5 -36 77 -43 77 -2 0 0 -8 3 -17z"/>
<path d="M5010 669 c-17 -28 -30 -55 -28 -61 2 -5 18 18 36 51 40 74 35 80 -8
10z"/>
<path d="M4720 706 c0 -2 7 -9 15 -16 9 -7 15 -8 15 -2 0 5 -7 12 -15 16 -8 3
-15 4 -15 2z"/>
<path d="M4375 690 c3 -5 8 -10 11 -10 2 0 4 5 4 10 0 6 -5 10 -11 10 -5 0 -7
-4 -4 -10z"/>
<path d="M4841 667 c-13 -21 -12 -21 5 -5 10 10 16 20 13 22 -3 3 -11 -5 -18
-17z"/>
<path d="M4755 660 c3 -5 8 -10 11 -10 2 0 4 5 4 10 0 6 -5 10 -11 10 -5 0 -7
-4 -4 -10z"/>
<path d="M4435 594 c19 -25 35 -50 35 -56 0 -6 3 -9 6 -5 8 8 -47 95 -63 101
-7 3 3 -15 22 -40z"/>
<path d="M4770 632 c0 -7 5 -12 10 -12 6 0 10 -7 10 -15 0 -8 5 -15 10 -15 16
0 12 15 -10 35 -11 10 -20 13 -20 7z"/>
<path d="M4815 630 c-3 -5 -1 -10 4 -10 6 0 11 5 11 10 0 6 -2 10 -4 10 -3 0
-8 -4 -11 -10z"/>
<path d="M4600 621 c0 -6 5 -13 10 -16 6 -3 10 1 10 9 0 9 -4 16 -10 16 -5 0
-10 -4 -10 -9z"/>
<path d="M5147 593 c-4 -3 -7 -11 -7 -17 0 -6 5 -5 12 2 6 6 9 14 7 17 -3 3
-9 2 -12 -2z"/>
<path d="M4669 523 c12 -23 26 -45 32 -48 13 -8 -12 41 -36 70 -11 14 -10 7 4
-22z"/>
<path d="M5125 549 c-4 -6 -5 -12 -2 -15 2 -3 7 2 10 11 7 17 1 20 -8 4z"/>
<path d="M4905 498 l-16 -33 21 24 c11 13 20 27 20 32 0 18 -10 8 -25 -23z"/>
<path d="M4520 467 c0 -5 9 -20 20 -34 11 -14 20 -22 20 -17 -1 12 -39 61 -40
51z"/>
<path d="M5050 435 c-7 -9 -11 -17 -9 -20 3 -2 10 5 17 15 14 24 10 26 -8 5z"/>
<path d="M4836 389 c-25 -42 -16 -45 12 -3 12 19 19 34 14 34 -4 0 -16 -14
-26 -31z"/>
<path d="M4751 395 c0 -5 6 -19 14 -29 8 -11 15 -15 15 -10 0 6 -7 19 -15 30
-8 10 -14 15 -14 9z"/>
<path d="M4590 352 c6 -13 14 -21 18 -18 3 4 -2 14 -12 24 -18 16 -18 16 -6
-6z"/>
<path d="M4990 339 c0 -5 5 -7 10 -4 6 3 10 8 10 11 0 2 -4 4 -10 4 -5 0 -10
-5 -10 -11z"/>
<path d="M4630 295 c0 -5 5 -17 10 -25 5 -8 10 -10 10 -5 0 6 -5 17 -10 25 -5
8 -10 11 -10 5z"/>
<path d="M4660 253 c0 -14 59 -113 67 -113 3 0 -5 17 -18 38 -12 20 -28 48
-35 62 -8 14 -14 19 -14 13z"/>
<path d="M4881 163 c-10 -26 -10 -27 4 -9 8 11 15 23 15 28 0 15 -7 8 -19 -19z"/>
<path d="M4740 111 c0 -5 5 -13 10 -16 6 -3 10 -2 10 4 0 5 -4 13 -10 16 -5 3
-10 2 -10 -4z"/>
<path d="M4845 109 c-4 -6 -5 -12 -2 -15 2 -3 7 2 10 11 7 17 1 20 -8 4z"/>
<path d="M4760 76 c0 -2 7 -9 15 -16 9 -7 15 -8 15 -2 0 5 -7 12 -15 16 -8 3
-15 4 -15 2z"/>
<path d="M4812 55 c-23 -27 -27 -35 -14 -35 4 0 16 14 25 30 22 37 18 38 -11
5z"/>
</g>
</svg>
